<svg width="50" height="50" viewBox="0 0 50 50" fill="none" xmlns="http://www.w3.org/2000/svg">
<path d="M24.9996 10C23.8629 10 22.7729 10.431 21.9691 11.1982C21.1654 11.9654 20.7139 13.0059 20.7139 14.0909V25C20.7139 26.085 21.1654 27.1255 21.9691 27.8927C22.7729 28.6599 23.8629 29.0909 24.9996 29.0909C26.1362 29.0909 27.2263 28.6599 28.03 27.8927C28.8338 27.1255 29.2853 26.085 29.2853 25V14.0909C29.2853 13.0059 28.8338 11.9654 28.03 11.1982C27.2263 10.431 26.1362 10 24.9996 10V10Z" stroke="#475467" stroke-width="1.5" stroke-linecap="round" stroke-linejoin="round"/>
<path d="M35 22.2734V25.0007C35 27.5323 33.9464 29.9602 32.0711 31.7504C30.1957 33.5405 27.6522 34.5462 25 34.5462C22.3478 34.5462 19.8043 33.5405 17.9289 31.7504C16.0536 29.9602 15 27.5323 15 25.0007V22.2734" stroke="#475467" stroke-width="1.5" stroke-linecap="round" stroke-linejoin="round"/>
<path d="M25.0005 34.5459V40.0004" stroke="#475467" stroke-width="1.5" stroke-linecap="round" stroke-linejoin="round"/>
<path d="M19.2866 40H30.7152" stroke="#475467" stroke-width="1.5" stroke-linecap="round" stroke-linejoin="round"/>
</svg>
