<svg width="99" height="65" viewBox="0 0 99 65" fill="none" xmlns="http://www.w3.org/2000/svg">
<circle cx="84" cy="31" r="14.5" fill="white" stroke="#D0D5DD"/>
<path d="M89.0932 26.7119C90.1 27.719 90.7855 29.002 91.0631 30.3986C91.3408 31.7953 91.198 33.2429 90.653 34.5584C90.108 35.8739 89.1851 36.9983 88.0011 37.7894C86.817 38.5805 85.425 39.0027 84.001 39.0027C82.5771 39.0027 81.1851 38.5805 80.001 37.7894C78.817 36.9983 77.8941 35.8739 77.3491 34.5584C76.8041 33.2429 76.6613 31.7953 76.939 30.3986C77.2166 29.002 77.9021 27.719 78.9089 26.7119" stroke="#AFAFAF" stroke-width="1.5" stroke-linecap="round" stroke-linejoin="round"/>
<path d="M84.0044 23V31.0003" stroke="#AFAFAF" stroke-width="1.5" stroke-linecap="round" stroke-linejoin="round"/>
<path d="M45.2828 1H6.71722C3.55969 1 1 3.30372 1 6.1455V40.8545C1 43.6963 3.55969 46 6.71722 46H45.2828C48.4403 46 51 43.6963 51 40.8545V6.1455C51 3.30372 48.4403 1 45.2828 1Z" fill="white" stroke="#475467" stroke-width="1.5"/>
<path d="M26 37C34.2843 37 41 31.1797 41 24C41 16.8203 34.2843 11 26 11C17.7157 11 11 16.8203 11 24C11 31.1797 17.7157 37 26 37Z" fill="white" stroke="#475467" stroke-width="1.5"/>
<path d="M41 59C36.7885 62.2308 31.481 64 25.9999 64C20.519 64 15.2113 62.2308 11 59" stroke="#475467" stroke-width="1.5" stroke-linecap="round" stroke-linejoin="round"/>
<path d="M32 52C30.2471 53.9515 28.1502 55 25.9999 55C23.8498 55 21.7529 53.9515 20 52" stroke="#475467" stroke-width="1.5" stroke-linecap="round" stroke-linejoin="round"/>
</svg>
