<svg width="62" height="47" viewBox="0 0 62 47" fill="none" xmlns="http://www.w3.org/2000/svg">
<path d="M52.0002 21.4943C52.0002 26.4394 50.006 30.9188 46.778 34.1722C46.4667 34.4859 46.311 34.6428 46.2191 34.7937C46.1314 34.9376 46.0804 35.0615 46.0412 35.2254C46.0002 35.3973 46.0002 35.5928 46.0002 35.9837V43.0943C46.0002 43.9344 46.0002 44.3544 45.8367 44.6753C45.6929 44.9575 45.4634 45.187 45.1812 45.3308C44.8603 45.4943 44.4403 45.4943 43.6002 45.4943H37.9002C37.0601 45.4943 36.6401 45.4943 36.3192 45.3308C36.037 45.187 35.8075 44.9575 35.6637 44.6753C35.5002 44.3544 35.5002 43.9344 35.5002 43.0943V41.8943C35.5002 41.0542 35.5002 40.6342 35.3367 40.3133C35.1929 40.031 34.9634 39.8016 34.6812 39.6578C34.3603 39.4943 33.9403 39.4943 33.1002 39.4943H28.9002C28.0601 39.4943 27.6401 39.4943 27.3192 39.6578C27.037 39.8016 26.8075 40.031 26.6637 40.3133C26.5002 40.6342 26.5002 41.0542 26.5002 41.8943V43.0943C26.5002 43.9344 26.5002 44.3544 26.3367 44.6753C26.1929 44.9575 25.9634 45.187 25.6812 45.3308C25.3603 45.4943 24.9403 45.4943 24.1002 45.4943H18.4C17.5599 45.4943 17.1399 45.4943 16.819 45.3308C16.5368 45.187 16.3073 44.9575 16.1635 44.6753C16 44.3544 16 43.9344 16 43.0943V40.1673C16 39.5611 16 39.258 15.9137 39.0147C15.831 38.7815 15.7268 38.6182 15.5501 38.445C15.3658 38.2643 15.0535 38.1193 14.4289 37.8293C11.4823 36.4613 8.96786 34.3195 7.14663 31.6648C6.82638 31.198 6.66625 30.9645 6.49524 30.8266C6.33175 30.6948 6.185 30.6175 5.98378 30.5573C5.77332 30.4943 5.52347 30.4943 5.02378 30.4943H3.4C2.55992 30.4943 2.13987 30.4943 1.819 30.3308C1.53676 30.187 1.3073 29.9575 1.16349 29.6753C0.999999 29.3544 1 28.9344 1 28.0943V17.8515C1 17.0517 0.999992 16.6519 1.14858 16.3434C1.296 16.0373 1.54299 15.7903 1.84909 15.6429C2.15758 15.4943 2.55747 15.4943 3.35724 15.4943C3.93614 15.4943 4.22559 15.4943 4.45872 15.4157C4.71012 15.3309 4.88639 15.2182 5.06879 15.0256C5.23794 14.8469 5.37602 14.5482 5.65219 13.9507C6.5386 12.0329 7.75254 10.2976 9.22224 8.81638C9.53355 8.50263 9.68921 8.34576 9.7811 8.19489C9.86877 8.05094 9.9198 7.92703 9.95896 7.7631C9.99999 7.59128 10 7.39579 10 7.0048V3.676C10 2.59587 10 2.0558 10.2249 1.69279C10.422 1.37479 10.7307 1.1419 11.0906 1.0398C11.5015 0.923246 12.0207 1.07161 13.0593 1.36834L20.177 3.40193C20.298 3.43649 20.3585 3.45377 20.4199 3.4659C20.4745 3.47667 20.5297 3.4844 20.5852 3.48904C20.6476 3.49427 20.7105 3.49427 20.8364 3.49427H22.0583C22.0825 3.49427 22.0946 3.49427 22.1065 3.4937C22.1172 3.49319 22.1275 3.49237 22.1382 3.49118C22.15 3.48986 22.1615 3.48801 22.1846 3.48431C26.6956 2.76138 36.9494 2.17785 42.3881 5.56398C48.1041 8.57988 52.0002 14.5821 52.0002 21.4943ZM52.0002 21.4943H55C58.3137 21.4943 61 18.808 61 15.4943" stroke="#475467" stroke-width="1.5" stroke-linecap="round" stroke-linejoin="round"/>
<mask id="path-2-inside-1_475_8501" fill="white">
<path d="M10.6465 15.611C10.6465 14.9778 10.7712 14.3509 11.0135 13.7659C11.2558 13.1809 11.6109 12.6494 12.0586 12.2017C12.5064 11.754 13.0379 11.3989 13.6228 11.1566C14.2078 10.9143 14.8348 10.7896 15.4679 10.7896C16.1011 10.7896 16.728 10.9143 17.313 11.1566C17.898 11.3989 18.4295 11.754 18.8772 12.2017C19.3249 12.6494 19.68 13.1809 19.9223 13.7659C20.1646 14.3509 20.2893 14.9778 20.2893 15.611L18.281 15.611C18.281 15.2416 18.2083 14.8758 18.0669 14.5345C17.9255 14.1931 17.7183 13.883 17.4571 13.6218C17.1959 13.3606 16.8857 13.1534 16.5444 13.012C16.2031 12.8706 15.8373 12.7979 15.4679 12.7979C15.0985 12.7979 14.7327 12.8706 14.3914 13.012C14.0501 13.1534 13.74 13.3606 13.4787 13.6218C13.2175 13.883 13.0103 14.1931 12.8689 14.5344C12.7276 14.8758 12.6548 15.2416 12.6548 15.611H10.6465Z"/>
</mask>
<path d="M10.6465 15.611C10.6465 14.9778 10.7712 14.3509 11.0135 13.7659C11.2558 13.1809 11.6109 12.6494 12.0586 12.2017C12.5064 11.754 13.0379 11.3989 13.6228 11.1566C14.2078 10.9143 14.8348 10.7896 15.4679 10.7896C16.1011 10.7896 16.728 10.9143 17.313 11.1566C17.898 11.3989 18.4295 11.754 18.8772 12.2017C19.3249 12.6494 19.68 13.1809 19.9223 13.7659C20.1646 14.3509 20.2893 14.9778 20.2893 15.611L18.281 15.611C18.281 15.2416 18.2083 14.8758 18.0669 14.5345C17.9255 14.1931 17.7183 13.883 17.4571 13.6218C17.1959 13.3606 16.8857 13.1534 16.5444 13.012C16.2031 12.8706 15.8373 12.7979 15.4679 12.7979C15.0985 12.7979 14.7327 12.8706 14.3914 13.012C14.0501 13.1534 13.74 13.3606 13.4787 13.6218C13.2175 13.883 13.0103 14.1931 12.8689 14.5344C12.7276 14.8758 12.6548 15.2416 12.6548 15.611H10.6465Z" stroke="#475467" stroke-width="2" mask="url(#path-2-inside-1_475_8501)"/>
<path d="M34.5296 27.5374C33.5696 27.5374 32.7163 27.3241 31.9696 26.8974C31.2363 26.4708 30.6296 25.8508 30.1496 25.0374C29.6696 24.2241 29.3496 23.2374 29.1896 22.0774L29.4496 22.3574H27.1096V21.2774H29.3696L29.1296 21.5374C29.0896 21.1508 29.0696 20.7308 29.0696 20.2774C29.083 19.8241 29.103 19.4241 29.1296 19.0774L29.3896 19.3174H27.1096V18.2374H29.5496L29.1896 18.5374C29.3496 17.3641 29.6696 16.3774 30.1496 15.5774C30.6296 14.7641 31.2363 14.1441 31.9696 13.7174C32.7163 13.2908 33.5696 13.0774 34.5296 13.0774C35.3296 13.0774 36.0696 13.2241 36.7496 13.5174C37.4296 13.8108 38.0096 14.2574 38.4896 14.8574L37.8696 16.0774C37.443 15.5174 36.9563 15.1241 36.4096 14.8974C35.8763 14.6574 35.2896 14.5374 34.6496 14.5374C33.663 14.5374 32.843 14.8641 32.1896 15.5174C31.5363 16.1708 31.0963 17.1574 30.8696 18.4774L30.5096 18.2374H34.3296V19.3174H30.4496L30.8096 19.0774C30.7696 19.4108 30.7496 19.8108 30.7496 20.2774C30.7496 20.7308 30.7696 21.1441 30.8096 21.5174L30.4496 21.2774H34.3296V22.3574H30.6496L30.8696 22.1174C31.0963 23.4508 31.5363 24.4441 32.1896 25.0974C32.843 25.7508 33.663 26.0774 34.6496 26.0774C35.2896 26.0774 35.8763 25.9574 36.4096 25.7174C36.9563 25.4774 37.443 25.0841 37.8696 24.5374L38.4896 25.7374C38.0096 26.3508 37.4296 26.8041 36.7496 27.0974C36.0696 27.3908 35.3296 27.5374 34.5296 27.5374Z" fill="#475467"/>
</svg>
