<svg width="33" height="28" viewBox="0 0 33 28" fill="none" xmlns="http://www.w3.org/2000/svg">
<path d="M17.9448 1.78424L30.2781 8.83186C31.2908 9.4105 31.9157 10.4874 31.9157 11.6536V23.999C31.9157 25.794 30.4606 27.249 28.6657 27.249H3.99902C2.2041 27.249 0.749023 25.7939 0.749023 23.999V11.6536C0.749023 10.4874 1.37395 9.4105 2.38657 8.83186L14.7199 1.78424C15.7191 1.21329 16.9457 1.21329 17.9448 1.78424Z" stroke="#7C7C7C" stroke-width="1.5" stroke-linejoin="round"/>
<path d="M22.8424 12.0599C22.4759 11.7236 22.0407 11.4568 21.5617 11.2747C21.0828 11.0927 20.5694 10.999 20.0509 10.999C19.5325 10.999 19.0191 11.0927 18.5401 11.2747C18.0612 11.4568 17.626 11.7236 17.2595 12.0599L16.4988 12.7576L15.7382 12.0599C14.9978 11.3809 13.9937 10.9994 12.9467 10.9994C11.8997 10.9994 10.8956 11.3809 10.1553 12.0599C9.41494 12.739 8.99902 13.6599 8.99902 14.6203C8.99902 15.5806 9.41494 16.5016 10.1553 17.1806L10.9159 17.8783L16.4988 22.999L22.0817 17.8783L22.8424 17.1806C23.2091 16.8445 23.5 16.4453 23.6984 16.006C23.8969 15.5667 23.999 15.0958 23.999 14.6203C23.999 14.1447 23.8969 13.6739 23.6984 13.2345C23.5 12.7952 23.2091 12.3961 22.8424 12.0599V12.0599Z" stroke="#7C7C7C" stroke-width="1.5" stroke-linecap="round" stroke-linejoin="round"/>
</svg>
