<svg width="24" height="24" viewBox="0 0 24 24" fill="none" xmlns="http://www.w3.org/2000/svg">
<path d="M11.999 21.999C17.5219 21.999 21.999 17.5219 21.999 11.999C21.999 6.47618 17.5219 1.99902 11.999 1.99902C6.47618 1.99902 1.99902 6.47618 1.99902 11.999C1.99902 17.5219 6.47618 21.999 11.999 21.999Z" stroke="#122C44" stroke-width="1.5" stroke-linecap="round" stroke-linejoin="round"/>
<path d="M9.08887 8.9991C9.32397 8.33077 9.78802 7.76721 10.3988 7.40824C11.0096 7.04926 11.7278 6.91804 12.426 7.03782C13.1243 7.15759 13.7577 7.52063 14.2139 8.06263C14.6702 8.60464 14.9199 9.29063 14.9189 9.9991C14.9189 11.9991 11.999 12.999 11.999 12.999" stroke="#122C44" stroke-width="1.5" stroke-linecap="round" stroke-linejoin="round"/>
<path d="M11.249 13.999C11.249 14.4132 11.5848 14.749 11.999 14.749C12.4132 14.749 12.749 14.4132 12.749 13.999H11.249ZM11.249 12.999V13.999H12.749V12.999H11.249Z" fill="#122C44"/>
<path d="M11.999 16.999H12.009" stroke="#122C44" stroke-width="1.5" stroke-linecap="round" stroke-linejoin="round"/>
</svg>
