<svg width="50" height="50" viewBox="0 0 50 50" fill="none" xmlns="http://www.w3.org/2000/svg">
<path d="M27.5472 28.5854C27.5472 28.8382 27.6745 29.0739 27.8859 29.2125C28.8604 29.8518 29.5972 30.78 29.9902 31.8583C30.3831 32.9363 30.4124 34.1093 30.0739 35.2047C29.7354 36.3003 29.0462 37.2626 28.1052 37.9477C27.1639 38.6331 26.0214 39.0041 24.8464 39.0041C23.6713 39.0041 22.5288 38.6331 21.5876 37.9477C20.6465 37.2626 19.9573 36.3003 19.6188 35.2047C19.2803 34.1093 19.3096 32.9363 19.7025 31.8583C20.0955 30.78 20.8323 29.8518 21.8068 29.2125C22.0182 29.0739 22.1455 28.8382 22.1455 28.5854L22.1455 13.3264C22.1455 12.6313 22.4266 11.9618 22.9316 11.466C23.4371 10.9697 24.1256 10.6885 24.8464 10.6885C25.5671 10.6885 26.2556 10.9697 26.7611 11.466C27.2661 11.9618 27.5472 12.6313 27.5472 13.3264L27.5472 28.5854Z" stroke="#475467" stroke-width="1.5" stroke-linecap="round" stroke-linejoin="round"/>
</svg>
