<svg width="50" height="50" viewBox="0 0 50 50" fill="none" xmlns="http://www.w3.org/2000/svg">
<path d="M20.2139 31.75C20.2139 30.5074 21.2212 29.5 22.4639 29.5H27.1782C28.4208 29.5 29.4282 30.5074 29.4282 31.75V40.5H20.2139V31.75Z" stroke="#475467" stroke-width="1.5"/>
<path d="M18.4272 25.1786C18.4272 24.1135 19.2907 23.25 20.3558 23.25H29.2844C30.3495 23.25 31.213 24.1135 31.213 25.1786C31.213 26.2437 30.3495 27.1071 29.2844 27.1071H20.3558C19.2907 27.1071 18.4272 26.2437 18.4272 25.1786Z" stroke="#475467" stroke-width="1.5"/>
<mask id="path-3-inside-1_529_7148" fill="white">
<path d="M21.25 27.1875H22.4219V29.5312H21.25V27.1875Z"/>
</mask>
<path d="M21.25 27.1875V25.6875H19.75V27.1875H21.25ZM22.4219 27.1875H23.9219V25.6875H22.4219V27.1875ZM22.4219 29.5312V31.0312H23.9219V29.5312H22.4219ZM21.25 29.5312H19.75V31.0312H21.25V29.5312ZM21.25 28.6875H22.4219V25.6875H21.25V28.6875ZM20.9219 27.1875V29.5312H23.9219V27.1875H20.9219ZM22.4219 28.0312H21.25V31.0312H22.4219V28.0312ZM22.75 29.5312V27.1875H19.75V29.5312H22.75Z" fill="#475467" mask="url(#path-3-inside-1_529_7148)"/>
<mask id="path-5-inside-2_529_7148" fill="white">
<path d="M27.5 27.1875H28.6719V29.5312H27.5V27.1875Z"/>
</mask>
<path d="M27.5 27.1875V25.6875H26V27.1875H27.5ZM28.6719 27.1875H30.1719V25.6875H28.6719V27.1875ZM28.6719 29.5312V31.0312H30.1719V29.5312H28.6719ZM27.5 29.5312H26V31.0312H27.5V29.5312ZM27.5 28.6875H28.6719V25.6875H27.5V28.6875ZM27.1719 27.1875V29.5312H30.1719V27.1875H27.1719ZM28.6719 28.0312H27.5V31.0312H28.6719V28.0312ZM29 29.5312V27.1875H26V29.5312H29Z" fill="#475467" mask="url(#path-5-inside-2_529_7148)"/>
<line x1="8.75" y1="40.5" x2="40" y2="40.5" stroke="#475467" stroke-width="1.5"/>
<path d="M24.8228 20.7143V10" stroke="#475467" stroke-width="1.5" stroke-linecap="round" stroke-dasharray="3 3"/>
<path d="M28.3911 20.715L34.6411 10.8936" stroke="#475467" stroke-width="1.5" stroke-linecap="round" stroke-dasharray="3 3"/>
<path d="M32.8589 22.4997L39.1089 15.8032" stroke="#475467" stroke-width="1.5" stroke-linecap="round" stroke-dasharray="3 3"/>
<path d="M16.7861 22.4997L10.5361 15.8032" stroke="#475467" stroke-width="1.5" stroke-linecap="round" stroke-dasharray="3 3"/>
<path d="M21.25 20.715L15 10.8936" stroke="#475467" stroke-width="1.5" stroke-linecap="round" stroke-dasharray="3 3"/>
</svg>
