<svg width="50" height="50" viewBox="0 0 50 50" fill="none" xmlns="http://www.w3.org/2000/svg">
<path d="M15.9663 33.8988H12.9831C12.192 33.8988 11.4332 33.5845 10.8737 33.025C10.3143 32.4656 10 31.7068 10 30.9157V18.9831C10 18.192 10.3143 17.4332 10.8737 16.8737C11.4332 16.3143 12.192 16 12.9831 16H17.7412M30.8819 16H33.865C34.6562 16 35.415 16.3143 35.9744 16.8737C36.5339 17.4332 36.8482 18.192 36.8482 18.9831V30.9157C36.8482 31.7068 36.5339 32.4656 35.9744 33.025C35.415 33.5845 34.6562 33.8988 33.865 33.8988H29.107" stroke="#475467" stroke-width="1.5" stroke-linecap="round" stroke-linejoin="round"/>
<path d="M40 28.1879V21.625" stroke="#475467" stroke-width="1.5" stroke-linecap="round" stroke-linejoin="round"/>
<path d="M24.9145 16L18.9482 24.9494H27.8976L21.9314 33.8988" stroke="#475467" stroke-width="1.5" stroke-linecap="round" stroke-linejoin="round"/>
</svg>
