<svg width="50" height="50" viewBox="0 0 50 50" fill="none" xmlns="http://www.w3.org/2000/svg">
<path d="M40 27.5972C40 29.2878 38.4724 30.9375 35.7171 32.1866C32.9942 33.4209 29.2055 34.1944 25 34.1944C20.7945 34.1944 17.0058 33.4209 14.2829 32.1866C11.5276 30.9375 10 29.2878 10 27.5972C10 25.9066 11.5276 24.2569 14.2829 23.0079C17.0058 21.7735 20.7945 21 25 21C29.2055 21 32.9942 21.7735 35.7171 23.0079C38.4724 24.2569 40 25.9066 40 27.5972Z" stroke="#475467" stroke-width="1.5"/>
<path d="M34.5652 29.9583C34.5652 30.9381 33.6124 31.9269 31.8059 32.6908C30.0282 33.4424 27.5455 33.9167 24.7826 33.9167C22.0197 33.9167 19.537 33.4424 17.7593 32.6908C15.9529 31.9269 15 30.9381 15 29.9583C15 28.9785 15.9529 27.9898 17.7593 27.2259C19.537 26.4742 22.0197 26 24.7826 26C27.5455 26 30.0282 26.4742 31.8059 27.2259C33.6124 27.9898 34.5652 28.9785 34.5652 29.9583Z" stroke="#475467" stroke-width="1.5"/>
<path d="M10 27V21.2255C9.99623 19.4354 11.3887 17.7086 13.9072 16.3801C16.4257 15.0517 19.8904 14.2165 23.6288 14.0366C27.3672 13.8567 31.1126 14.3449 34.1378 15.4066C37.163 16.4683 39.2523 18.0276 40 19.7818V27" stroke="#475467" stroke-width="1.5" stroke-linecap="round" stroke-linejoin="round"/>
</svg>
