<svg width="97" height="55" viewBox="0 0 97 55" fill="none" xmlns="http://www.w3.org/2000/svg">
<path d="M16.5288 21V34.3082C16.5288 36.8533 14.5419 38.9166 12.0908 38.9166H1" stroke="#475467" stroke-width="1.5" stroke-linecap="round"/>
<path d="M1 53.6411V27.6621" stroke="#475467" stroke-width="1.5" stroke-linecap="round"/>
<path d="M16.533 25.9297C18.8615 25.9297 20.7491 23.9696 20.7491 21.5518C20.7491 19.1339 18.8615 17.1738 16.533 17.1738C14.2045 17.1738 12.3169 19.1339 12.3169 21.5518C12.3169 23.9696 14.2045 25.9297 16.533 25.9297Z" fill="white" stroke="#475467" stroke-width="1.5"/>
<path d="M47.6963 17.794L43.6259 16.6615C43.034 16.4968 42.4256 16.8615 42.267 17.4761L40.7298 23.4334C40.5712 24.048 40.9225 24.6797 41.5143 24.8444L45.5848 25.9769C46.1766 26.1416 46.785 25.7769 46.9436 25.1623L48.4809 19.205C48.6394 18.5904 48.2882 17.9587 47.6963 17.794Z" fill="white" stroke="#475467" stroke-width="1.5"/>
<path d="M6.10655 1.85421C6.26516 1.23955 6.87352 0.87485 7.46537 1.03955L51.1769 13.2016C51.9929 13.4286 52.2749 14.4816 51.689 15.1135L40.1468 27.5614C39.8666 27.8635 39.4505 27.9836 39.0604 27.8751L3.12094 17.8755C2.52909 17.7108 2.17787 17.0791 2.33639 16.4645L6.10655 1.85421Z" fill="white" stroke="#475467" stroke-width="1.5"/>
<path d="M30.3755 16.6851L4.16211 9.3916" stroke="#475467" stroke-width="1.5" stroke-linecap="round"/>
<rect x="67.5" y="13.5" width="29" height="29" rx="14.5" fill="white" stroke="#D0D5DD"/>
<path d="M82.0002 35.8008C82.0002 35.8008 88.6668 32.8008 88.6668 28.3008V23.0508L82.0002 20.8008L75.3335 23.0508V28.3008C75.3335 32.8008 82.0002 35.8008 82.0002 35.8008Z" stroke="#98A2B3" stroke-linecap="round" stroke-linejoin="round"/>
<path d="M85.3332 26.1992L80.7498 30.3242L78.6665 28.4492" stroke="#98A2B3" stroke-linecap="round" stroke-linejoin="round"/>
</svg>
