<svg width="110" height="60" viewBox="0 0 110 60" fill="none" xmlns="http://www.w3.org/2000/svg">
<path d="M46.5 7H16.1667L1 24.3333H31.3333L46.5 7Z" fill="#EFEFEF"/>
<path d="M16.1667 7L1 24.3333H31.3333L46.5 7H16.1667Z" stroke="#475467" stroke-width="1.5" stroke-linecap="round" stroke-linejoin="round"/>
<path d="M31.3333 59V24.3333M31.3333 24.3333L46.5 7L61.6667 24.3333V41.6667M31.3333 24.3333H1V41.6667" stroke="#475467" stroke-width="1.5" stroke-linecap="round" stroke-linejoin="round"/>
<path d="M31.333 7L16.1663 24.3333M8.58301 15.6667H38.9163" stroke="#475467" stroke-width="1.5" stroke-linecap="round" stroke-linejoin="round"/>
<path d="M1 24.332V53.9987C1 56.7601 3.23858 58.9987 6.00001 58.9987H56.6667C59.4281 58.9987 61.6667 56.7601 61.6667 53.9987V24.332" stroke="#475467" stroke-width="1.5"/>
<circle cx="2.31101" cy="2.31101" r="1.81101" transform="matrix(-1 0 0 1 65.6172 43.6719)" stroke="#475467"/>
<circle cx="2.31101" cy="2.31101" r="1.81101" transform="matrix(-1 0 0 1 84.3003 43.6719)" stroke="#475467"/>
<path fill-rule="evenodd" clip-rule="evenodd" d="M78.304 34.3125C79.451 34.3125 80.51 34.9271 81.079 35.9229C82.2966 38.0537 80.7581 40.7049 78.304 40.7049H72.7431H72.5504H66.9896C64.5355 40.7049 62.997 38.0537 64.2145 35.9229C64.7836 34.9271 65.8426 34.3125 66.9896 34.3125H72.5504H72.7431H78.304ZM72.7431 35.3125H78.304C79.0921 35.3125 79.8198 35.7348 80.2108 36.4191C81.0474 37.8832 79.9903 39.7049 78.304 39.7049H72.7431H72.5504H66.9896C65.3033 39.7049 64.2461 37.8832 65.0828 36.4191C65.4738 35.7348 66.2015 35.3125 66.9896 35.3125H72.5504H72.7431Z" fill="#475467"/>
<path fill-rule="evenodd" clip-rule="evenodd" d="M66.3148 32.3301C65.0218 32.3301 63.8201 32.9962 63.1348 34.0926L58.6945 41.197C58.322 41.793 58.1245 42.4817 58.1245 43.1845V50.1238C58.1245 50.7117 58.5365 51.2033 59.0874 51.3259V51.857C59.0874 52.9626 59.9837 53.8588 61.0892 53.8588H62.9188C63.8648 53.8588 64.6317 53.0919 64.6317 52.1459C64.6317 52.0283 64.727 51.933 64.8446 51.933H72.4967C72.5131 51.9341 72.5296 51.9346 72.5463 51.9346H80.4422C80.5598 51.9346 80.6551 52.0299 80.6551 52.1475C80.6551 53.0935 81.422 53.8604 82.3681 53.8604H84.1976C85.3032 53.8604 86.1994 52.9642 86.1994 51.8587V51.3275C86.7504 51.2049 87.1623 50.7133 87.1623 50.1254V43.1861C87.1623 42.7327 87.0801 42.2851 86.9217 41.8646H87.3756C88.1835 41.8646 88.8385 41.2096 88.8385 40.4016C88.8385 39.5937 88.1835 38.9387 87.3756 38.9387H85.6559C85.5059 38.9387 85.363 38.969 85.233 39.0237L82.1521 34.0942C81.4668 32.9978 80.265 32.3317 78.9721 32.3317H72.7902C72.7738 32.3306 72.7572 32.3301 72.7406 32.3301H66.3148ZM72.4967 33.8301H66.3148C65.539 33.8301 64.8179 34.2297 64.4068 34.8876L59.9665 41.992C59.743 42.3496 59.6245 42.7628 59.6245 43.1845V49.8846C60.1755 50.0071 60.5874 50.4988 60.5874 51.0867V51.857C60.5874 52.1342 60.8121 52.3588 61.0892 52.3588H62.9188C63.0364 52.3588 63.1317 52.2635 63.1317 52.1459C63.1317 51.1999 63.8986 50.433 64.8446 50.433H72.7406C72.7572 50.433 72.7738 50.4335 72.7902 50.4346H80.4422C81.3882 50.4346 82.1551 51.2015 82.1551 52.1475C82.1551 52.2651 82.2505 52.3604 82.3681 52.3604H84.1976C84.4747 52.3604 84.6994 52.1358 84.6994 51.8587V51.0883C84.6994 50.5004 85.1114 50.0088 85.6623 49.8862V43.1861C85.6623 42.7644 85.5438 42.3512 85.3203 41.9936L80.8801 34.8892C80.4689 34.2313 79.7478 33.8317 78.9721 33.8317H72.5463C72.5296 33.8317 72.5131 33.8311 72.4967 33.8301ZM86.7077 40.8646C86.5832 40.8646 86.4614 40.8441 86.3465 40.8053L85.8049 39.9387H87.3756C87.6312 39.9387 87.8385 40.146 87.8385 40.4016C87.8385 40.6573 87.6312 40.8646 87.3756 40.8646H86.7077Z" fill="#475467"/>
<path d="M57.9146 39.4355H59.6343C59.9609 39.4355 60.2256 39.7003 60.2256 40.0269C60.2256 40.1436 60.191 40.2577 60.1263 40.3548L59.9394 40.6352C59.6369 41.0889 59.1277 41.3614 58.5825 41.3614H57.9146C57.3828 41.3614 56.9517 40.9303 56.9517 40.3985C56.9517 39.8667 57.3828 39.4355 57.9146 39.4355Z" stroke="#475467" stroke-linecap="round"/>
<path d="M61.498 25C61.498 22.6528 59.5953 20.75 57.248 20.75H53.9999C51.6527 20.75 49.7499 22.6528 49.7499 25V58.9944H61.498V25Z" fill="#EAECF0" stroke="#475467" stroke-width="1.5"/>
<path d="M56.507 25.2979L52.9741 30.5971H58.2734L54.7405 35.8964" stroke="#475467" stroke-linecap="round" stroke-linejoin="round"/>
<circle cx="0.993609" cy="0.993609" r="0.75" transform="matrix(-1 0 0 1 73.5088 45.1748)" stroke="#475467" stroke-width="0.487218"/>
<circle cx="2.98083" cy="2.98083" r="2.23083" transform="matrix(-1 0 0 1 58.1982 39.8721)" stroke="#475467" stroke-width="1.5"/>
<path d="M55.2926 42.8545V52.7714C55.2926 54.4283 56.6357 55.7714 58.2926 55.7714H69.5151C71.172 55.7714 72.5151 54.4283 72.5151 52.7714V46.1665" stroke="#475467" stroke-width="1.5" stroke-linecap="round"/>
<path d="M110 15C110 23.2843 103.284 30 95 30C86.7157 30 80 23.2843 80 15C80 6.71573 86.7157 0 95 0C103.284 0 110 6.71573 110 15ZM82.4 15C82.4 21.9588 88.0412 27.6 95 27.6C101.959 27.6 107.6 21.9588 107.6 15C107.6 8.04121 101.959 2.4 95 2.4C88.0412 2.4 82.4 8.04121 82.4 15Z" fill="#E8E8E8"/>
<path d="M81.2 15C80.5373 15 79.995 14.4619 80.048 13.8012C80.2361 11.4547 80.9745 9.17928 82.2104 7.16252C83.6558 4.80383 85.7253 2.89079 88.1901 1.6349C90.655 0.379012 93.4191 -0.170804 96.1769 0.0462402C98.9347 0.263285 101.579 1.23873 103.817 2.86475C106.055 4.49076 107.8 6.70399 108.858 9.25975C109.917 11.8155 110.248 14.6142 109.815 17.3465C109.383 20.0788 108.203 22.6382 106.406 24.7417C104.87 26.5403 102.934 27.9457 100.761 28.8498C100.149 29.1043 99.4692 28.7549 99.2644 28.1246C99.0596 27.4943 99.4076 26.8225 100.016 26.5587C101.77 25.7976 103.333 24.645 104.581 23.183C106.09 21.4161 107.081 19.2662 107.445 16.9711C107.808 14.676 107.53 12.325 106.641 10.1782C105.752 8.03135 104.286 6.17224 102.406 4.80639C100.526 3.44054 98.3051 2.62116 95.9886 2.43884C93.672 2.25652 91.3502 2.71837 89.2797 3.77332C87.2093 4.82826 85.4709 6.43522 84.2567 8.41652C83.2522 10.0557 82.6389 11.8984 82.4571 13.8018C82.3941 14.4615 81.8627 15 81.2 15Z" fill="#D0D5DD"/>
<path d="M92.1354 18.7841H90.9422C90.6258 18.7841 90.3223 18.6584 90.0985 18.4346C89.8747 18.2109 89.749 17.9074 89.749 17.5909V12.8182C89.749 12.5017 89.8747 12.1982 90.0985 11.9745C90.3223 11.7507 90.6258 11.625 90.9422 11.625H92.8453M98.1013 11.625H99.2945C99.6109 11.625 99.9144 11.7507 100.138 11.9745C100.362 12.1982 100.488 12.5017 100.488 12.8182V17.5909C100.488 17.9074 100.362 18.2109 100.138 18.4346C99.9144 18.6584 99.6109 18.7841 99.2945 18.7841H97.3914" stroke="#475467" stroke-linecap="round" stroke-linejoin="round"/>
<path d="M101.748 16.5V13.875" stroke="#475467" stroke-linecap="round" stroke-linejoin="round"/>
<path d="M95.715 11.625L93.3286 15.2045H96.9082L94.5218 18.7841" stroke="#475467" stroke-linecap="round" stroke-linejoin="round"/>
</svg>
