<svg width="90" height="67" viewBox="0 0 90 67" fill="none" xmlns="http://www.w3.org/2000/svg">
<path d="M2.68391 17V16.01H5.68991V5.282H6.31991L2.95391 7.424V6.272L5.99591 4.31H6.80591V16.01H9.64991V17H2.68391ZM16.4469 17.144C15.0189 17.144 13.9149 16.838 13.1349 16.226C12.3549 15.614 11.9649 14.762 11.9649 13.67C11.9649 12.782 12.2349 12.05 12.7749 11.474C13.3269 10.898 14.0469 10.55 14.9349 10.43V10.646C14.1189 10.478 13.4709 10.112 12.9909 9.548C12.5109 8.972 12.2709 8.294 12.2709 7.514C12.2709 6.458 12.6429 5.636 13.3869 5.048C14.1309 4.46 15.1509 4.166 16.4469 4.166C17.7549 4.166 18.7809 4.46 19.5249 5.048C20.2689 5.636 20.6409 6.458 20.6409 7.514C20.6409 8.294 20.4129 8.972 19.9569 9.548C19.5129 10.112 18.8829 10.478 18.0669 10.646V10.43C18.9549 10.55 19.6509 10.898 20.1549 11.474C20.6709 12.05 20.9289 12.782 20.9289 13.67C20.9289 14.762 20.5389 15.614 19.7589 16.226C18.9909 16.838 17.8869 17.144 16.4469 17.144ZM16.4469 16.19C17.5869 16.19 18.4329 15.98 18.9849 15.56C19.5489 15.128 19.8309 14.48 19.8309 13.616C19.8309 12.752 19.5489 12.11 18.9849 11.69C18.4329 11.27 17.5869 11.06 16.4469 11.06C15.3069 11.06 14.4549 11.27 13.8909 11.69C13.3389 12.11 13.0629 12.752 13.0629 13.616C13.0629 14.48 13.3449 15.128 13.9089 15.56C14.4729 15.98 15.3189 16.19 16.4469 16.19ZM16.4469 10.088C17.4429 10.088 18.2049 9.866 18.7329 9.422C19.2609 8.978 19.5249 8.366 19.5249 7.586C19.5249 6.806 19.2609 6.2 18.7329 5.768C18.2049 5.336 17.4429 5.12 16.4469 5.12C15.4509 5.12 14.6889 5.336 14.1609 5.768C13.6329 6.2 13.3689 6.806 13.3689 7.586C13.3689 8.366 13.6329 8.978 14.1609 9.422C14.6889 9.866 15.4509 10.088 16.4469 10.088ZM30.1993 9.692C29.6593 9.692 29.1733 9.572 28.7413 9.332C28.3213 9.08 27.9853 8.744 27.7333 8.324C27.4933 7.904 27.3733 7.43 27.3733 6.902C27.3733 6.374 27.4933 5.906 27.7333 5.498C27.9853 5.078 28.3213 4.748 28.7413 4.508C29.1733 4.256 29.6593 4.13 30.1993 4.13C30.7393 4.13 31.2193 4.25 31.6393 4.49C32.0593 4.73 32.3893 5.06 32.6293 5.48C32.8813 5.9 33.0073 6.374 33.0073 6.902C33.0073 7.43 32.8813 7.91 32.6293 8.342C32.3893 8.762 32.0593 9.092 31.6393 9.332C31.2193 9.572 30.7393 9.692 30.1993 9.692ZM30.1993 8.414C30.6193 8.414 30.9613 8.27 31.2253 7.982C31.4893 7.694 31.6213 7.334 31.6213 6.902C31.6213 6.482 31.4893 6.128 31.2253 5.84C30.9613 5.552 30.6193 5.408 30.1993 5.408C29.7793 5.408 29.4313 5.552 29.1553 5.84C28.8913 6.128 28.7593 6.482 28.7593 6.902C28.7593 7.334 28.8913 7.694 29.1553 7.982C29.4313 8.27 29.7793 8.414 30.1993 8.414ZM40.7318 17.18C39.4118 17.18 38.2778 16.916 37.3298 16.388C36.3938 15.848 35.6738 15.092 35.1698 14.12C34.6658 13.136 34.4138 11.978 34.4138 10.646C34.4138 9.314 34.6658 8.162 35.1698 7.19C35.6738 6.218 36.3938 5.468 37.3298 4.94C38.2778 4.4 39.4118 4.13 40.7318 4.13C41.6198 4.13 42.4178 4.256 43.1258 4.508C43.8458 4.76 44.4638 5.132 44.9798 5.624L44.2238 7.46C43.6598 7.004 43.1138 6.68 42.5858 6.488C42.0698 6.284 41.4758 6.182 40.8038 6.182C39.5198 6.182 38.5358 6.572 37.8518 7.352C37.1798 8.12 36.8438 9.218 36.8438 10.646C36.8438 12.074 37.1798 13.178 37.8518 13.958C38.5358 14.738 39.5198 15.128 40.8038 15.128C41.4758 15.128 42.0698 15.032 42.5858 14.84C43.1138 14.636 43.6598 14.3 44.2238 13.832L44.9798 15.668C44.4638 16.148 43.8458 16.52 43.1258 16.784C42.4178 17.048 41.6198 17.18 40.7318 17.18Z" fill="#7C7C7C"/>
<path d="M27.7263 51.0163V30.5451C27.7263 29.3397 27.2475 28.1836 26.3951 27.3312C25.5427 26.4789 24.3866 26 23.1812 26C21.9758 26 20.8197 26.4789 19.9673 27.3312C19.1149 28.1836 18.6361 29.3397 18.6361 30.5451V51.0163C17.1767 51.9914 16.0696 53.41 15.4783 55.0625C14.887 56.7151 14.8428 58.514 15.3523 60.1936C15.8617 61.8732 16.8979 63.3444 18.3076 64.39C19.7174 65.4355 21.426 66 23.1812 66C24.9364 66 26.645 65.4355 28.0548 64.39C29.4645 63.3444 30.5007 61.8732 31.0101 60.1936C31.5196 58.514 31.4754 56.7151 30.8841 55.0625C30.2928 53.41 29.1857 51.9914 27.7263 51.0163Z" fill="white" stroke="#475467" stroke-width="1.5" stroke-linecap="round" stroke-linejoin="round"/>
<rect x="86" y="2" width="64" height="4" rx="2" transform="rotate(90 86 2)" fill="#E8E8E8"/>
<path d="M84 2C85.1046 2 86 2.89543 86 4L86 40.1277L82 40.1277L82 4C82 2.89543 82.8954 2 84 2Z" fill="#D0D5DD"/>
<circle cx="84" cy="40" r="5.25" transform="rotate(90 84 40)" fill="white" stroke="#475467" stroke-width="1.5"/>
</svg>
