<svg width="24" height="26" viewBox="0 0 24 26" fill="none" xmlns="http://www.w3.org/2000/svg">
<path d="M20.1952 11.8037H3.3994C2.07425 11.8037 1 12.878 1 14.2031V22.601C1 23.9262 2.07425 25.0004 3.3994 25.0004H20.1952C21.5203 25.0004 22.5946 23.9262 22.5946 22.601V14.2031C22.5946 12.878 21.5203 11.8037 20.1952 11.8037Z" stroke="#AFAFAF" stroke-width="1.5" stroke-linecap="round" stroke-linejoin="round"/>
<path d="M5.79883 11.8033V7.00454C5.79734 5.51697 6.34863 4.08191 7.34569 2.97795C8.34275 1.87399 9.71445 1.17988 11.1945 1.03038C12.6745 0.880884 14.1573 1.28666 15.355 2.16893C16.5527 3.0512 17.3798 4.34702 17.6759 5.80484V11.8033" stroke="#AFAFAF" stroke-width="1.5" stroke-linecap="round" stroke-linejoin="round"/>
</svg>
