<svg width="10" height="24" viewBox="0 0 10 24" fill="none" xmlns="http://www.w3.org/2000/svg">
<path d="M6.88579 15.0098C6.88579 15.2603 7.01084 15.4942 7.21912 15.6334C7.96097 16.1291 8.52374 16.8502 8.82432 17.6902C9.1249 18.5302 9.14736 19.4447 8.88838 20.2985C8.62939 21.1522 8.1027 21.9001 7.38608 22.4316C6.66947 22.9631 5.80092 23.25 4.90872 23.25C4.01652 23.25 3.14798 22.9631 2.43136 22.4316C1.71474 21.9001 1.18805 21.1522 0.929063 20.2985C0.670079 19.4447 0.692537 18.5302 0.993121 17.6902C1.2937 16.8502 1.85648 16.1291 2.59832 15.6334C2.8066 15.4942 2.93165 15.2603 2.93165 15.0098V2.72707C2.93165 2.20272 3.13995 1.69984 3.51072 1.32907C3.8815 0.958298 4.38437 0.75 4.90872 0.75C5.43307 0.75 5.93595 0.958298 6.30672 1.32907C6.67749 1.69984 6.88579 2.20272 6.88579 2.72707V15.0098Z" stroke="#98A2B3" stroke-width="1.5" stroke-linecap="round" stroke-linejoin="round"/>
</svg>
