<svg width="27" height="26" viewBox="0 0 27 26" fill="none" xmlns="http://www.w3.org/2000/svg">
<path d="M20.2002 11.7998H21.4002C22.6732 11.7998 23.8941 12.3055 24.7943 13.2057C25.6945 14.1059 26.2002 15.3268 26.2002 16.5998C26.2002 17.8728 25.6945 19.0937 24.7943 19.9939C23.8941 20.8941 22.6732 21.3998 21.4002 21.3998H20.2002" stroke="#AFAFAF" stroke-width="1.5" stroke-linecap="round" stroke-linejoin="round"/>
<path d="M1 9.40039H20.2V20.2004C20.2 21.4734 19.6943 22.6943 18.7941 23.5945C17.8939 24.4947 16.673 25.0004 15.4 25.0004H5.8C4.52696 25.0004 3.30606 24.4947 2.40589 23.5945C1.50571 22.6943 1 21.4734 1 20.2004V9.40039Z" stroke="#AFAFAF" stroke-width="1.5" stroke-linecap="round" stroke-linejoin="round"/>
<path d="M5.7998 2.2002V5.8002" stroke="#AFAFAF" stroke-width="1.5" stroke-linecap="round" stroke-linejoin="round"/>
<path d="M10.5996 1V4.6" stroke="#AFAFAF" stroke-width="1.5" stroke-linecap="round" stroke-linejoin="round"/>
<path d="M15.4004 2.2002V5.8002" stroke="#AFAFAF" stroke-width="1.5" stroke-linecap="round" stroke-linejoin="round"/>
</svg>
