<svg width="55" height="55" viewBox="0 0 55 55" fill="none" xmlns="http://www.w3.org/2000/svg">
<path fill-rule="evenodd" clip-rule="evenodd" d="M27.4925 26.0499C25.2932 23.6243 21.6257 22.9718 18.8702 25.1929C16.1146 27.4141 15.7267 31.1277 17.8906 33.7547C19.5251 35.7389 24.1684 39.7222 26.3428 41.5527C26.7425 41.8892 26.9424 42.0575 27.1764 42.1237C27.3796 42.1812 27.6054 42.1812 27.8085 42.1237C28.0426 42.0575 28.2424 41.8892 28.6421 41.5527C30.8165 39.7222 35.4598 35.7389 37.0943 33.7547C39.2583 31.1277 38.9177 27.3907 36.1148 25.1929C33.3118 22.9952 29.6918 23.6243 27.4925 26.0499Z" stroke="#475467" stroke-width="1.5" stroke-linecap="round" stroke-linejoin="round"/>
<path d="M5.5 25.8028C5.5 24.3975 5.5 23.6949 5.68112 23.0478C5.84156 22.4747 6.10522 21.9356 6.45915 21.457C6.85871 20.9168 7.41333 20.4855 8.52256 19.6227L25.1165 6.71636C25.976 6.0478 26.4058 5.71353 26.8804 5.58503C27.2991 5.47166 27.7405 5.47166 28.1592 5.58503C28.6338 5.71353 29.0636 6.0478 29.9232 6.71636L46.517 19.6227C47.6263 20.4855 48.1809 20.9168 48.5805 21.457C48.9344 21.9356 49.198 22.4747 49.3585 23.0478C49.5396 23.6949 49.5396 24.3975 49.5396 25.8028V43.5041C49.5396 46.2446 49.5396 47.6148 49.0063 48.6615C48.5371 49.5823 47.7886 50.3309 46.8678 50.8C45.8211 51.3333 44.4508 51.3333 41.7103 51.3333H13.3293C10.5888 51.3333 9.21851 51.3333 8.17178 50.8C7.25105 50.3309 6.50247 49.5823 6.03334 48.6615C5.5 47.6148 5.5 46.2446 5.5 43.5041V25.8028Z" stroke="#475467" stroke-width="1.5" stroke-linecap="round" stroke-linejoin="round"/>
</svg>
