<svg width="21" height="24" viewBox="0 0 21 24" fill="none" xmlns="http://www.w3.org/2000/svg">
<g clip-path="url(#clip0_1_5348)">
<path d="M0 22.3489C0.00249374 22.63 0.120676 22.8989 0.329077 23.0976C0.537479 23.2964 0.819414 23.4091 1.11413 23.4115H19.3418C19.6373 23.4115 19.9207 23.2995 20.1296 23.1003C20.3385 22.901 20.4559 22.6307 20.4559 22.3489C20.4559 22.0671 20.3385 21.7968 20.1296 21.5975C19.9207 21.3982 19.6373 21.2863 19.3418 21.2863H1.11413C0.506042 21.2379 0 21.7695 0 22.3489Z" fill="#AFAFAF"/>
<path d="M10.2277 19.0646C10.5224 19.0623 10.8044 18.9495 11.0128 18.7508C11.2212 18.552 11.3393 18.2831 11.3418 18.002V4.67361L16.8098 9.84095C17.215 10.2274 17.9747 10.2758 18.4306 9.84095C18.6478 9.63617 18.7745 9.35976 18.7845 9.06861C18.7845 8.77891 18.6836 8.48864 18.4306 8.2957L10.2277 0.520508L2.0254 8.2957C1.9175 8.3964 1.83177 8.51664 1.77325 8.64937C1.71472 8.78209 1.68457 8.92463 1.68457 9.06861C1.68457 9.2126 1.71472 9.35513 1.77325 9.48785C1.83177 9.62058 1.9175 9.74082 2.0254 9.84152C2.48072 10.2758 3.18966 10.2274 3.64558 9.84152L9.06345 4.67418V18.0026C9.06286 18.582 9.62022 19.0646 10.2277 19.0646Z" fill="#AFAFAF"/>
</g>
<defs>
<clipPath id="clip0_1_5348">
<rect width="20.4559" height="22.8902" fill="white" transform="translate(0 0.520508)"/>
</clipPath>
</defs>
</svg>
