<svg width="50" height="50" viewBox="0 0 50 50" fill="none" xmlns="http://www.w3.org/2000/svg">
<path d="M34.5316 12.498H16.2145C14.7148 12.498 13.499 13.6498 13.499 15.0706V32.4237C13.499 33.8445 14.7148 34.9962 16.2145 34.9962H34.5316C36.0314 34.9962 37.2471 33.8445 37.2471 32.4237V15.0706C37.2471 13.6498 36.0314 12.498 34.5316 12.498Z" stroke="#475467" stroke-width="1.5"/>
<path d="M25.373 29.997C29.1696 29.997 32.2474 27.199 32.2474 23.7475C32.2474 20.296 29.1696 17.498 25.373 17.498C21.5763 17.498 18.4985 20.296 18.4985 23.7475C18.4985 27.199 21.5763 29.997 25.373 29.997Z" stroke="#475467" stroke-width="1.5"/>
<path d="M32.2474 41.2461C30.3173 42.8614 27.8849 43.7459 25.3729 43.7459C22.8611 43.7459 20.4286 42.8614 18.4985 41.2461" stroke="#475467" stroke-width="1.5" stroke-linecap="round" stroke-linejoin="round"/>
<path d="M28.4975 37.4961C27.5847 38.3092 26.4926 38.746 25.3728 38.746C24.253 38.746 23.1609 38.3092 22.248 37.4961" stroke="#475467" stroke-width="1.5" stroke-linecap="round" stroke-linejoin="round"/>
</svg>
