<svg width="21" height="21" viewBox="0 0 21 21" fill="none" xmlns="http://www.w3.org/2000/svg">
<path d="M7 8V13.1995C7 14.1939 6.23231 15 5.28525 15H1" stroke="#475467" stroke-width="1.5" stroke-linecap="round"/>
<path d="M1 20V11" stroke="#475467" stroke-width="1.5" stroke-linecap="round"/>
<path d="M6.5 10C7.32843 10 8 9.32843 8 8.5C8 7.67157 7.32843 7 6.5 7C5.67157 7 5 7.67157 5 8.5C5 9.32843 5.67157 10 6.5 10Z" fill="" stroke="#475467" stroke-width="1.5"/>
<path d="M18.3966 7.14655L16.8802 6.73215C16.6597 6.6719 16.4331 6.80535 16.374 7.03024L15.8013 9.21003C15.7422 9.43492 15.8731 9.66607 16.0936 9.72633L17.61 10.1407C17.8305 10.201 18.0571 10.0675 18.1162 9.84264L18.6889 7.66285C18.748 7.43796 18.6171 7.20681 18.3966 7.14655Z" fill="" stroke="#475467" stroke-width="1.5"/>
<path d="M3.37919 1.31738C3.43663 1.08901 3.65696 0.953501 3.8713 1.0147L19.7019 5.53349C19.9975 5.61784 20.0996 6.00908 19.8874 6.24386L15.7072 10.8688C15.6058 10.9811 15.4551 11.0257 15.3138 10.9854L2.29791 7.27006C2.08357 7.20887 1.95637 6.97416 2.01378 6.74581L3.37919 1.31738Z" fill="" stroke="#475467" stroke-width="1.5"/>
<path d="M13 7L3 4" stroke="#475467" stroke-width="1.5" stroke-linecap="round"/>
</svg>
