<svg width="103" height="60" viewBox="0 0 103 60" fill="none" xmlns="http://www.w3.org/2000/svg">
<circle cx="30" cy="30" r="29.3" fill="white" stroke="#475467" stroke-width="1.4"/>
<circle cx="45.0015" cy="30" r="4.5" fill="white" stroke="#475467" stroke-width="1.5"/>
<circle cx="15.0015" cy="30" r="4.5" fill="white" stroke="#475467" stroke-width="1.5"/>
<path d="M28.5015 0.75H31.5015V4.5C31.5015 5.32843 30.8299 6 30.0015 6C29.173 6 28.5015 5.32843 28.5015 4.5V0.75Z" fill="#475467"/>
<path d="M31.4985 59.25L28.4985 59.25L28.4985 55.5C28.4985 54.6716 29.1701 54 29.9985 54C30.827 54 31.4985 54.6716 31.4985 55.5L31.4985 59.25Z" fill="#475467"/>
<circle cx="88" cy="28" r="14.5" fill="white" stroke="#D0D5DD"/>
<path d="M93.0932 23.7119C94.1 24.719 94.7855 26.002 95.0631 27.3986C95.3408 28.7953 95.198 30.2429 94.653 31.5584C94.108 32.8739 93.1851 33.9983 92.0011 34.7894C90.817 35.5805 89.425 36.0027 88.001 36.0027C86.5771 36.0027 85.1851 35.5805 84.001 34.7894C82.817 33.9983 81.8941 32.8739 81.3491 31.5584C80.8041 30.2429 80.6613 28.7953 80.939 27.3986C81.2166 26.002 81.9021 24.719 82.9089 23.7119" stroke="#AFAFAF" stroke-width="1.5" stroke-linecap="round" stroke-linejoin="round"/>
<path d="M88.0044 20V28.0003" stroke="#AFAFAF" stroke-width="1.5" stroke-linecap="round" stroke-linejoin="round"/>
</svg>
