<svg width="114" height="67" viewBox="0 0 114 67" fill="none" xmlns="http://www.w3.org/2000/svg">
<path d="M55.1167 19C55.1167 17.7574 56.1241 16.75 57.3667 16.75H60.7331C61.9758 16.75 62.9831 17.7574 62.9831 19V25.25H55.1167V19Z" stroke="#475467" stroke-width="1.5"/>
<path d="M53.5562 13.1429C53.5562 12.3736 54.1798 11.75 54.949 11.75H63.1519C63.9211 11.75 64.5447 12.3736 64.5447 13.1429C64.5447 13.9121 63.9211 14.5357 63.1519 14.5357H54.949C54.1798 14.5357 53.5562 13.9121 53.5562 13.1429Z" stroke="#475467" stroke-width="1.5"/>
<mask id="path-3-inside-1_384_4368" fill="white">
<path d="M55.9272 14.75H56.9517V16.625H55.9272V14.75Z"/>
</mask>
<path d="M55.9272 14.75V13.25H54.4272V14.75H55.9272ZM56.9517 14.75H58.4517V13.25H56.9517V14.75ZM56.9517 16.625V18.125H58.4517V16.625H56.9517ZM55.9272 16.625H54.4272V18.125H55.9272V16.625ZM55.9272 16.25H56.9517V13.25H55.9272V16.25ZM55.4517 14.75V16.625H58.4517V14.75H55.4517ZM56.9517 15.125H55.9272V18.125H56.9517V15.125ZM57.4272 16.625V14.75H54.4272V16.625H57.4272Z" fill="#475467" mask="url(#path-3-inside-1_384_4368)"/>
<mask id="path-5-inside-2_384_4368" fill="white">
<path d="M61.3911 14.75H62.4156V16.625H61.3911V14.75Z"/>
</mask>
<path d="M61.3911 14.75V13.25H59.8911V14.75H61.3911ZM62.4156 14.75H63.9156V13.25H62.4156V14.75ZM62.4156 16.625V18.125H63.9156V16.625H62.4156ZM61.3911 16.625H59.8911V18.125H61.3911V16.625ZM61.3911 16.25H62.4156V13.25H61.3911V16.25ZM60.9156 14.75V16.625H63.9156V14.75H60.9156ZM62.4156 15.125H61.3911V18.125H62.4156V15.125ZM62.8911 16.625V14.75H59.8911V16.625H62.8911Z" fill="#475467" mask="url(#path-5-inside-2_384_4368)"/>
<line x1="45" y1="25.25" x2="72.3187" y2="25.25" stroke="#475467" stroke-width="1.5"/>
<path d="M59.0488 9.57143V1" stroke="#475467" stroke-width="1.5" stroke-linecap="round" stroke-dasharray="3 3"/>
<path d="M62.1729 9.57199L67.6366 1.71484" stroke="#475467" stroke-width="1.5" stroke-linecap="round" stroke-dasharray="3 3"/>
<path d="M66.0732 11.0017L71.537 5.64453" stroke="#475467" stroke-width="1.5" stroke-linecap="round" stroke-dasharray="3 3"/>
<path d="M52.0244 11.0017L46.5607 5.64453" stroke="#475467" stroke-width="1.5" stroke-linecap="round" stroke-dasharray="3 3"/>
<path d="M55.9272 9.57199L50.4635 1.71484" stroke="#475467" stroke-width="1.5" stroke-linecap="round" stroke-dasharray="3 3"/>
<path d="M2.72949 46.9766L4.90477 59.6991C5.15112 61.1399 6.40009 62.1935 7.86186 62.1935H30.9153" stroke="#7C7C7C" stroke-width="1.5" stroke-linecap="round"/>
<path d="M30.9204 62.1937H56.9381V62.1937C57.6565 62.1937 58.239 61.6112 58.239 60.8928V44.8633" stroke="#7C7C7C" stroke-width="1.5" stroke-linecap="round"/>
<ellipse cx="17.91" cy="56.2766" rx="9.97344" ry="9.72193" fill="white" stroke="#7C7C7C" stroke-width="1.5"/>
<path fill-rule="evenodd" clip-rule="evenodd" d="M6.92667 47.3402L3.82308 47.1569C2.23771 47.0632 1 45.7502 1 44.1621V43.9982C1 43.7476 1.09409 43.5062 1.26365 43.3216L6.97487 37.106C7.61446 36.4099 8.54472 36.056 9.48524 36.1509L55.5402 40.8C57.0726 40.9547 58.2389 42.2446 58.2389 43.7848V47.1892C58.2389 48.9156 56.7854 50.2858 55.0619 50.184L29.9284 48.6991C27.3782 44.8655 22.9496 42.3293 17.9132 42.3293C13.499 42.3293 9.5516 44.2776 6.92667 47.3402Z" fill="white"/>
<path d="M3.82308 47.1569L3.77885 47.9056L3.77885 47.9056L3.82308 47.1569ZM6.92667 47.3402L6.88244 48.0889L7.25394 48.1109L7.49613 47.8283L6.92667 47.3402ZM1.26365 43.3216L1.81591 43.8291L1.81591 43.8291L1.26365 43.3216ZM6.97487 37.106L7.52714 37.6134L7.52714 37.6134L6.97487 37.106ZM9.48524 36.1509L9.40992 36.8971L9.40992 36.8971L9.48524 36.1509ZM55.5402 40.8L55.4648 41.5462L55.4648 41.5462L55.5402 40.8ZM55.0619 50.184L55.0177 50.9326L55.0177 50.9326L55.0619 50.184ZM29.9284 48.6991L29.304 49.1145L29.511 49.4258L29.8842 49.4478L29.9284 48.6991ZM3.77885 47.9056L6.88244 48.0889L6.9709 46.5915L3.86731 46.4082L3.77885 47.9056ZM0.25 44.1621C0.25 46.1473 1.79713 47.7885 3.77885 47.9056L3.86731 46.4082C2.67828 46.3379 1.75 45.3532 1.75 44.1621H0.25ZM0.25 43.9982V44.1621H1.75V43.9982H0.25ZM0.71138 42.8142C0.414659 43.1371 0.25 43.5597 0.25 43.9982H1.75C1.75 43.9356 1.77352 43.8752 1.81591 43.8291L0.71138 42.8142ZM6.42261 36.5985L0.71138 42.8142L1.81591 43.8291L7.52714 37.6134L6.42261 36.5985ZM9.56057 35.4047C8.38492 35.286 7.22209 35.7284 6.42261 36.5985L7.52714 37.6134C8.00683 37.0914 8.70452 36.8259 9.40992 36.8971L9.56057 35.4047ZM55.6155 40.0538L9.56057 35.4047L9.40992 36.8971L55.4648 41.5462L55.6155 40.0538ZM58.9889 43.7848C58.9889 41.8596 57.531 40.2471 55.6155 40.0538L55.4648 41.5462C56.6141 41.6622 57.4889 42.6297 57.4889 43.7848H58.9889ZM58.9889 47.1892V43.7848H57.4889V47.1892H58.9889ZM55.0177 50.9326C57.172 51.0599 58.9889 49.3472 58.9889 47.1892H57.4889C57.4889 48.484 56.3987 49.5116 55.1062 49.4353L55.0177 50.9326ZM29.8842 49.4478L55.0177 50.9326L55.1062 49.4353L29.9727 47.9504L29.8842 49.4478ZM17.9132 43.0793C22.6935 43.0793 26.89 45.4856 29.304 49.1145L30.5529 48.2837C27.8665 44.2453 23.2057 41.5793 17.9132 41.5793V43.0793ZM7.49613 47.8283C9.98216 44.9278 13.7234 43.0793 17.9132 43.0793V41.5793C13.2746 41.5793 9.12104 43.6275 6.35721 46.8522L7.49613 47.8283Z" fill="#7C7C7C"/>
<ellipse cx="17.9081" cy="56.2785" rx="4.7699" ry="4.64962" fill="white" stroke="#7C7C7C" stroke-width="1.5"/>
<path d="M40.4316 55.8555H55.2458C56.9026 55.8555 58.2458 57.1986 58.2458 58.8555V63.0001C58.2458 64.6569 56.9026 66.0001 55.2458 66.0001H40.4316C38.7748 66.0001 37.4316 64.6569 37.4316 63.0001V58.8555C37.4316 57.1986 38.7748 55.8555 40.4316 55.8555Z" fill="white" stroke="#7C7C7C" stroke-width="1.5" stroke-linecap="round"/>
<path d="M21.9668 21.4768C24.513 19.4094 27.722 18.2773 31.0358 18.2773C34.3496 18.2773 37.5587 19.4094 40.1049 21.4768" stroke="#475467" stroke-width="1.5" stroke-linecap="round" stroke-linejoin="round"/>
<path d="M17.356 17.0196C21.1207 13.7848 25.9668 12 30.9853 12C36.0038 12 40.8499 13.7848 44.6146 17.0196" stroke="#475467" stroke-width="1.5" stroke-linecap="round" stroke-linejoin="round"/>
<path d="M26.5132 25.947C27.821 25.0413 29.3855 24.5547 30.9897 24.5547C32.594 24.5547 34.1585 25.0413 35.4663 25.947" stroke="#475467" stroke-width="1.5" stroke-linecap="round" stroke-linejoin="round"/>
<path d="M114 50.3741C114 58.8649 107.284 65.7481 99 65.7481C90.7157 65.7481 84 58.8649 84 50.3741C84 41.8832 90.7157 35 99 35C107.284 35 114 41.8832 114 50.3741ZM86.4 50.3741C86.4 57.5064 92.0412 63.2883 99 63.2883C105.959 63.2883 111.6 57.5064 111.6 50.3741C111.6 43.2417 105.959 37.4599 99 37.4599C92.0412 37.4599 86.4 43.2417 86.4 50.3741Z" fill="#E8E8E8"/>
<path d="M85.2 50.3741C84.5373 50.3741 83.9952 49.836 84.0457 49.1752C84.23 46.7596 84.9694 44.4167 86.2104 42.3411C87.6558 39.9236 89.7253 37.9629 92.1901 36.6757C94.655 35.3885 97.4191 34.8249 100.177 35.0474C102.935 35.2699 105.579 36.2696 107.817 37.9362C110.055 39.6027 111.8 41.8712 112.858 44.4907C113.917 47.1102 114.248 49.9787 113.815 52.7791C113.383 55.5795 112.203 58.2027 110.406 60.3587C108.879 62.1915 106.957 63.6259 104.798 64.553C104.169 64.8232 103.466 64.4616 103.259 63.809C103.056 63.1697 103.408 62.4916 104.021 62.2188C105.773 61.4387 107.334 60.2581 108.581 58.7612C110.09 56.9501 111.081 54.7466 111.445 52.3943C111.808 50.0419 111.53 47.6324 110.641 45.432C109.752 43.2316 108.286 41.3262 106.406 39.9262C104.526 38.5263 102.305 37.6865 99.9886 37.4997C97.672 37.3128 95.3502 37.7862 93.2797 38.8674C91.2093 39.9487 89.4709 41.5957 88.2567 43.6264C87.2471 45.315 86.6327 47.2143 86.4544 49.1757C86.3943 49.8357 85.8627 50.3741 85.2 50.3741Z" fill="#D0D5DD"/>
<path d="M92.8265 53.048C92.3545 53.048 91.9925 52.864 91.7405 52.496C91.4885 52.124 91.3625 51.588 91.3625 50.888C91.3625 50.176 91.4885 49.638 91.7405 49.274C91.9925 48.906 92.3545 48.722 92.8265 48.722C93.3025 48.722 93.6645 48.906 93.9125 49.274C94.1645 49.638 94.2905 50.174 94.2905 50.882C94.2905 51.586 94.1645 52.124 93.9125 52.496C93.6605 52.864 93.2985 53.048 92.8265 53.048ZM92.8265 52.718C93.1905 52.718 93.4625 52.568 93.6425 52.268C93.8225 51.968 93.9125 51.506 93.9125 50.882C93.9125 50.25 93.8225 49.788 93.6425 49.496C93.4625 49.2 93.1905 49.052 92.8265 49.052C92.4665 49.052 92.1945 49.202 92.0105 49.502C91.8305 49.798 91.7405 50.256 91.7405 50.876C91.7405 51.504 91.8305 51.968 92.0105 52.268C92.1945 52.568 92.4665 52.718 92.8265 52.718ZM96.5561 53.048C96.0521 53.048 95.6641 52.868 95.3921 52.508C95.1201 52.148 94.9841 51.646 94.9841 51.002C94.9841 50.51 95.0521 50.096 95.1881 49.76C95.3241 49.42 95.5201 49.162 95.7761 48.986C96.0321 48.81 96.3381 48.722 96.6941 48.722C96.9101 48.722 97.1301 48.77 97.3541 48.866C97.5781 48.958 97.7601 49.084 97.9001 49.244L97.7501 49.544C97.5981 49.38 97.4301 49.258 97.2461 49.178C97.0661 49.098 96.8801 49.058 96.6881 49.058C96.2601 49.058 95.9301 49.216 95.6981 49.532C95.4661 49.844 95.3501 50.31 95.3501 50.93V51.536H95.3081C95.3321 51.296 95.4001 51.09 95.5121 50.918C95.6281 50.742 95.7781 50.608 95.9621 50.516C96.1501 50.42 96.3581 50.372 96.5861 50.372C96.8461 50.372 97.0761 50.428 97.2761 50.54C97.4761 50.652 97.6321 50.808 97.7441 51.008C97.8561 51.208 97.9121 51.438 97.9121 51.698C97.9121 51.958 97.8541 52.192 97.7381 52.4C97.6221 52.604 97.4621 52.764 97.2581 52.88C97.0541 52.992 96.8201 53.048 96.5561 53.048ZM96.5261 52.718C96.7261 52.718 96.9021 52.676 97.0541 52.592C97.2101 52.508 97.3301 52.39 97.4141 52.238C97.5021 52.086 97.5461 51.91 97.5461 51.71C97.5461 51.51 97.5021 51.336 97.4141 51.188C97.3301 51.036 97.2101 50.918 97.0541 50.834C96.9021 50.746 96.7261 50.702 96.5261 50.702C96.3261 50.702 96.1481 50.746 95.9921 50.834C95.8401 50.918 95.7221 51.036 95.6381 51.188C95.5541 51.336 95.5121 51.51 95.5121 51.71C95.5121 51.91 95.5541 52.086 95.6381 52.238C95.7221 52.39 95.8401 52.508 95.9921 52.592C96.1481 52.676 96.3261 52.718 96.5261 52.718ZM98.6238 50.504V49.994H99.1338V50.504H98.6238ZM98.6238 53V52.484H99.1338V53H98.6238ZM101.934 53V52.04H99.8583V51.764L101.994 48.77H102.3V51.728H102.972V52.04H102.3V53H101.934ZM101.934 51.728V49.208H102.06L100.194 51.824V51.728H101.934ZM104.932 53.048C104.456 53.048 104.088 52.946 103.828 52.742C103.568 52.538 103.438 52.254 103.438 51.89C103.438 51.594 103.528 51.35 103.708 51.158C103.892 50.966 104.132 50.85 104.428 50.81V50.882C104.156 50.826 103.94 50.704 103.78 50.516C103.62 50.324 103.54 50.098 103.54 49.838C103.54 49.486 103.664 49.212 103.912 49.016C104.16 48.82 104.5 48.722 104.932 48.722C105.368 48.722 105.71 48.82 105.958 49.016C106.206 49.212 106.33 49.486 106.33 49.838C106.33 50.098 106.254 50.324 106.102 50.516C105.954 50.704 105.744 50.826 105.472 50.882V50.81C105.768 50.85 106 50.966 106.168 51.158C106.34 51.35 106.426 51.594 106.426 51.89C106.426 52.254 106.296 52.538 106.036 52.742C105.78 52.946 105.412 53.048 104.932 53.048ZM104.932 52.73C105.312 52.73 105.594 52.66 105.778 52.52C105.966 52.376 106.06 52.16 106.06 51.872C106.06 51.584 105.966 51.37 105.778 51.23C105.594 51.09 105.312 51.02 104.932 51.02C104.552 51.02 104.268 51.09 104.08 51.23C103.896 51.37 103.804 51.584 103.804 51.872C103.804 52.16 103.898 52.376 104.086 52.52C104.274 52.66 104.556 52.73 104.932 52.73ZM104.932 50.696C105.264 50.696 105.518 50.622 105.694 50.474C105.87 50.326 105.958 50.122 105.958 49.862C105.958 49.602 105.87 49.4 105.694 49.256C105.518 49.112 105.264 49.04 104.932 49.04C104.6 49.04 104.346 49.112 104.17 49.256C103.994 49.4 103.906 49.602 103.906 49.862C103.906 50.122 103.994 50.326 104.17 50.474C104.346 50.622 104.6 50.696 104.932 50.696Z" fill="#7C7C7C"/>
<path d="M112.77 15C112.77 23.0198 106.43 29.5 98.635 29.5C90.84 29.5 84.5 23.0198 84.5 15C84.5 6.98019 90.84 0.5 98.635 0.5C106.43 0.5 112.77 6.98019 112.77 15Z" fill="white" stroke="#D0D5DD"/>
<path d="M95.708 19V11" stroke="#AFAFAF" stroke-width="2" stroke-linecap="round" stroke-linejoin="round"/>
<path d="M101.562 19V11" stroke="#AFAFAF" stroke-width="2" stroke-linecap="round" stroke-linejoin="round"/>
</svg>
