<svg width="18" height="24" viewBox="0 0 18 24" fill="none" xmlns="http://www.w3.org/2000/svg">
<mask id="path-1-inside-1_353_8027" fill="white">
<path fill-rule="evenodd" clip-rule="evenodd" d="M12.0219 18.7161C12.0219 18.0651 12.4255 17.4916 12.9952 17.1767C15.7757 15.6398 17.6673 12.6108 17.6673 9.12535C17.6673 4.08556 13.7123 0 8.83364 0C3.95496 0 0 4.08556 0 9.12535C0 12.5158 1.78992 15.4744 4.44687 17.0478C5.01893 17.3865 5.42188 17.9755 5.42188 18.6404C5.42188 19.5613 6.16846 20.3079 7.08943 20.3079H10.43C11.3092 20.3079 12.0219 19.5952 12.0219 18.7161Z"/>
</mask>
<path d="M12.9952 17.1767L12.2696 15.8638L12.9952 17.1767ZM16.1673 9.12535C16.1673 12.0605 14.5761 14.589 12.2696 15.8638L13.7208 18.4895C16.9753 16.6906 19.1673 13.161 19.1673 9.12535H16.1673ZM8.83364 1.5C12.8383 1.5 16.1673 4.86768 16.1673 9.12535H19.1673C19.1673 3.30344 14.5863 -1.5 8.83364 -1.5V1.5ZM1.5 9.12535C1.5 4.86768 4.82895 1.5 8.83364 1.5V-1.5C3.08097 -1.5 -1.5 3.30344 -1.5 9.12535H1.5ZM5.21116 15.7571C3.00551 14.451 1.5 11.9803 1.5 9.12535H-1.5C-1.5 13.0513 0.57434 16.4978 3.68257 18.3384L5.21116 15.7571ZM10.43 18.8079H7.08943V21.8079H10.43V18.8079ZM3.92188 18.6404C3.92188 20.3898 5.34003 21.8079 7.08943 21.8079V18.8079C6.99689 18.8079 6.92188 18.7329 6.92188 18.6404H3.92188ZM3.68257 18.3384C3.77707 18.3944 3.84301 18.4632 3.88068 18.5228C3.91609 18.5789 3.92188 18.6176 3.92188 18.6404H6.92188C6.92188 17.3455 6.14607 16.3107 5.21116 15.7571L3.68257 18.3384ZM10.43 21.8079C12.1376 21.8079 13.5219 20.4237 13.5219 18.7161H10.5219C10.5219 18.7668 10.4807 18.8079 10.43 18.8079V21.8079ZM12.2696 15.8638C11.3161 16.3909 10.5219 17.4196 10.5219 18.7161H13.5219C13.5219 18.7076 13.5233 18.6827 13.5516 18.6393C13.5823 18.5921 13.6385 18.535 13.7208 18.4895L12.2696 15.8638Z" fill="#98A2B3" mask="url(#path-1-inside-1_353_8027)"/>
<line x1="6.77148" y1="21.4048" x2="10.6715" y2="21.4048" stroke="#98A2B3" stroke-width="1.5" stroke-linecap="round"/>
<line x1="7.37207" y1="23.25" x2="10.0721" y2="23.25" stroke="#98A2B3" stroke-width="1.5" stroke-linecap="round"/>
</svg>
