<svg width="40" height="40" viewBox="0 0 40 40" fill="none" xmlns="http://www.w3.org/2000/svg">
<circle cx="19.999" cy="19.999" r="20" fill="#EAECF0"/>
<path d="M27.9926 18.0026H11.1968C9.87161 18.0026 8.79736 19.0768 8.79736 20.402V28.7999C8.79736 30.125 9.87161 31.1993 11.1968 31.1993H27.9926C29.3177 31.1993 30.392 30.125 30.392 28.7999V20.402C30.392 19.0768 29.3177 18.0026 27.9926 18.0026Z" stroke="#475467" stroke-width="1.5" stroke-linecap="round" stroke-linejoin="round"/>
<path d="M13.5972 18.0019V13.2031C13.5957 11.7156 14.147 10.2805 15.144 9.17656C16.1411 8.07259 17.5128 7.37849 18.9928 7.22899C20.4729 7.07949 21.9557 7.48526 23.1533 8.36754C24.351 9.24981 25.1782 10.5456 25.4742 12.0034V18.0019" stroke="#475467" stroke-width="1.5" stroke-linecap="round" stroke-linejoin="round"/>
<path d="M20.6406 29.1084C20.0646 29.1084 19.5526 28.9804 19.1046 28.7244C18.6646 28.4684 18.3006 28.0964 18.0126 27.6084C17.7246 27.1204 17.5326 26.5284 17.4366 25.8324L17.5926 26.0004H16.1886V25.3524H17.5446L17.4006 25.5084C17.3766 25.2764 17.3646 25.0244 17.3646 24.7524C17.3726 24.4804 17.3846 24.2404 17.4006 24.0324L17.5566 24.1764H16.1886V23.5284H17.6526L17.4366 23.7084C17.5326 23.0044 17.7246 22.4124 18.0126 21.9324C18.3006 21.4444 18.6646 21.0724 19.1046 20.8164C19.5526 20.5604 20.0646 20.4324 20.6406 20.4324C21.1206 20.4324 21.5646 20.5204 21.9726 20.6964C22.3806 20.8724 22.7286 21.1404 23.0166 21.5004L22.6446 22.2324C22.3886 21.8964 22.0966 21.6604 21.7686 21.5244C21.4486 21.3804 21.0966 21.3084 20.7126 21.3084C20.1206 21.3084 19.6286 21.5044 19.2366 21.8964C18.8446 22.2884 18.5806 22.8804 18.4446 23.6724L18.2286 23.5284H20.5206V24.1764H18.1926L18.4086 24.0324C18.3846 24.2324 18.3726 24.4724 18.3726 24.7524C18.3726 25.0244 18.3846 25.2724 18.4086 25.4964L18.1926 25.3524H20.5206V26.0004H18.3126L18.4446 25.8564C18.5806 26.6564 18.8446 27.2524 19.2366 27.6444C19.6286 28.0364 20.1206 28.2324 20.7126 28.2324C21.0966 28.2324 21.4486 28.1604 21.7686 28.0164C22.0966 27.8724 22.3886 27.6364 22.6446 27.3084L23.0166 28.0284C22.7286 28.3964 22.3806 28.6684 21.9726 28.8444C21.5646 29.0204 21.1206 29.1084 20.6406 29.1084Z" fill="#475467"/>
</svg>
