<svg width="45" height="51" viewBox="0 0 45 51" fill="none" xmlns="http://www.w3.org/2000/svg">
<path d="M12.3676 13.6156L12.3676 13.6156C15.619 14.2229 19.1559 14.6739 22.5 14.6739C25.7409 14.6739 29.1625 14.2504 32.3294 13.6716C35.2233 13.1427 37.9182 12.4816 40.0876 11.8869C40.2787 11.8345 40.4658 11.7826 40.6486 11.7313C42.4359 11.2313 44.25 12.5743 44.25 14.3958C44.25 15.5264 43.5466 16.504 42.5049 16.8237C39.9307 17.6137 35.4508 18.8626 30.5906 19.6494L30.0496 19.737L29.9687 20.279C29.5937 22.7901 29.3455 25.3938 29.3455 27.8919C29.3455 34.366 31.0137 41.5866 32.2733 46.1235C32.7754 47.9318 31.428 49.75 29.6259 49.75C28.507 49.75 27.5331 49.0469 27.2136 47.9958C26.3585 45.1826 24.9644 40.1082 24.2078 34.7408L24.1037 34.0017L23.3641 34.1023C23.0191 34.1493 22.6874 34.1742 22.3734 34.1742C22.0468 34.1742 21.7061 34.1472 21.3558 34.0969L20.6113 33.9898L20.5064 34.7346C19.7501 40.1043 18.3552 45.1816 17.4997 47.9958C17.1803 49.0469 16.2063 49.75 15.0875 49.75C13.2854 49.75 11.938 47.9318 12.4401 46.1235C13.6997 41.5866 15.3678 34.366 15.3678 27.8919C15.3678 25.3776 15.1165 22.7565 14.7374 20.2302L14.6565 19.691L14.1187 19.6017C9.37078 18.8128 5.01768 17.5978 2.49514 16.8237C1.45342 16.504 0.75 15.5264 0.75 14.3958C0.75 12.5739 2.56505 11.2306 4.3528 11.7317C6.53736 12.3441 9.33638 13.0493 12.3676 13.6156ZM16.9443 6.41218C16.9443 3.33976 19.451 0.826172 22.5 0.826172C25.549 0.826172 28.0557 3.33976 28.0557 6.41218C28.0557 9.4846 25.549 11.9982 22.5 11.9982C19.451 11.9982 16.9443 9.4846 16.9443 6.41218Z" stroke="#475467" stroke-width="1.5"/>
</svg>
