<svg width="280" height="28" viewBox="0 0 280 28" fill="none" xmlns="http://www.w3.org/2000/svg">
<rect x="240.5" y="0.5" width="39" height="26.4286" rx="3.5" fill="white" stroke="#D0D5DD"/>
<path d="M243.455 16V11.065H245.786C246.355 11.065 246.794 11.2003 247.102 11.471C247.415 11.7417 247.571 12.1173 247.571 12.598C247.571 12.92 247.501 13.1953 247.361 13.424C247.221 13.648 247.018 13.823 246.752 13.949C246.486 14.0703 246.169 14.131 245.8 14.131L245.863 13.956H246.213C246.418 13.956 246.6 14.012 246.759 14.124C246.918 14.236 247.048 14.3923 247.151 14.593L247.9 16H246.486L245.681 14.425C245.63 14.3223 245.553 14.2523 245.45 14.215C245.352 14.1777 245.24 14.159 245.114 14.159H244.75V16H243.455ZM244.75 13.242H245.562C245.814 13.242 246.005 13.193 246.136 13.095C246.267 12.9923 246.332 12.8407 246.332 12.64C246.332 12.444 246.267 12.297 246.136 12.199C246.005 12.101 245.814 12.052 245.562 12.052H244.75V13.242ZM250.156 16.077C249.512 16.077 249.01 15.9113 248.651 15.58C248.296 15.2487 248.119 14.7937 248.119 14.215C248.119 13.8557 248.193 13.536 248.343 13.256C248.492 12.976 248.702 12.759 248.973 12.605C249.243 12.4463 249.561 12.367 249.925 12.367C250.284 12.367 250.583 12.4463 250.821 12.605C251.063 12.759 251.245 12.9737 251.367 13.249C251.488 13.5197 251.549 13.8347 251.549 14.194V14.46H249.162V13.872H250.632L250.513 13.97C250.513 13.704 250.461 13.508 250.359 13.382C250.261 13.2513 250.121 13.186 249.939 13.186C249.729 13.186 249.568 13.2653 249.456 13.424C249.348 13.578 249.295 13.8113 249.295 14.124V14.25C249.295 14.5627 249.372 14.7913 249.526 14.936C249.68 15.0807 249.901 15.153 250.191 15.153C250.377 15.153 250.552 15.132 250.716 15.09C250.884 15.048 251.042 14.9803 251.192 14.887L251.514 15.699C251.336 15.8203 251.131 15.9137 250.898 15.979C250.664 16.0443 250.417 16.077 250.156 16.077ZM253.941 16.077C253.549 16.077 253.206 16.0023 252.912 15.853C252.618 15.7037 252.389 15.4913 252.226 15.216C252.063 14.936 251.981 14.6023 251.981 14.215C251.981 13.8277 252.063 13.4963 252.226 13.221C252.389 12.9457 252.618 12.7357 252.912 12.591C253.206 12.4417 253.549 12.367 253.941 12.367C254.184 12.367 254.422 12.3997 254.655 12.465C254.888 12.5303 255.077 12.6237 255.222 12.745L254.872 13.592C254.76 13.4987 254.632 13.4287 254.487 13.382C254.347 13.3307 254.209 13.305 254.074 13.305C253.817 13.305 253.617 13.382 253.472 13.536C253.332 13.69 253.262 13.9163 253.262 14.215C253.262 14.5137 253.332 14.7423 253.472 14.901C253.617 15.055 253.817 15.132 254.074 15.132C254.205 15.132 254.342 15.1087 254.487 15.062C254.632 15.0107 254.76 14.9407 254.872 14.852L255.222 15.699C255.073 15.8157 254.881 15.909 254.648 15.979C254.419 16.0443 254.184 16.077 253.941 16.077ZM255.738 16V10.848H256.984V13.067H256.879C256.995 12.8383 257.161 12.6657 257.376 12.549C257.59 12.4277 257.835 12.367 258.111 12.367C258.526 12.367 258.836 12.4907 259.042 12.738C259.247 12.9853 259.35 13.361 259.35 13.865V16H258.104V13.921C258.104 13.7063 258.064 13.5523 257.985 13.459C257.91 13.3657 257.796 13.319 257.642 13.319C257.441 13.319 257.28 13.382 257.159 13.508C257.042 13.634 256.984 13.7997 256.984 14.005V16H255.738ZM260.099 16V13.41C260.099 13.2513 260.094 13.0903 260.085 12.927C260.076 12.7637 260.062 12.6027 260.043 12.444H261.247L261.317 13.06H261.24C261.357 12.836 261.522 12.6657 261.737 12.549C261.952 12.4277 262.194 12.367 262.465 12.367C262.88 12.367 263.191 12.4907 263.396 12.738C263.606 12.9807 263.711 13.361 263.711 13.879V16H262.465V13.935C262.465 13.7063 262.425 13.5477 262.346 13.459C262.267 13.3657 262.152 13.319 262.003 13.319C261.807 13.319 261.648 13.3843 261.527 13.515C261.406 13.641 261.345 13.809 261.345 14.019V16H260.099ZM265.769 16.077C265.317 16.077 264.981 15.9533 264.761 15.706C264.547 15.454 264.439 15.0737 264.439 14.565V12.444H265.685V14.572C265.685 14.7587 265.723 14.8987 265.797 14.992C265.877 15.0807 265.996 15.125 266.154 15.125C266.332 15.125 266.476 15.062 266.588 14.936C266.705 14.8053 266.763 14.635 266.763 14.425V12.444H268.009V16H266.798V15.363H266.903C266.791 15.5917 266.64 15.769 266.448 15.895C266.257 16.0163 266.031 16.077 265.769 16.077ZM268.787 16V13.41C268.787 13.2513 268.783 13.0903 268.773 12.927C268.764 12.7637 268.75 12.6027 268.731 12.444H269.935L270.005 13.06H269.928C270.045 12.836 270.211 12.6657 270.425 12.549C270.64 12.4277 270.883 12.367 271.153 12.367C271.569 12.367 271.879 12.4907 272.084 12.738C272.294 12.9807 272.399 13.361 272.399 13.879V16H271.153V13.935C271.153 13.7063 271.114 13.5477 271.034 13.459C270.955 13.3657 270.841 13.319 270.691 13.319C270.495 13.319 270.337 13.3843 270.215 13.515C270.094 13.641 270.033 13.809 270.033 14.019V16H268.787ZM274.892 17.568C274.537 17.568 274.224 17.5353 273.954 17.47C273.688 17.4093 273.447 17.3137 273.233 17.183L273.45 16.301C273.576 16.3757 273.713 16.4387 273.863 16.49C274.012 16.5413 274.166 16.5787 274.325 16.602C274.488 16.63 274.642 16.644 274.787 16.644C275.085 16.644 275.307 16.574 275.452 16.434C275.596 16.2987 275.669 16.105 275.669 15.853V15.23H275.739C275.664 15.4353 275.517 15.601 275.298 15.727C275.078 15.8483 274.836 15.909 274.57 15.909C274.252 15.909 273.975 15.839 273.737 15.699C273.503 15.5543 273.319 15.349 273.184 15.083C273.053 14.817 272.988 14.502 272.988 14.138C272.988 13.774 273.053 13.459 273.184 13.193C273.319 12.927 273.503 12.724 273.737 12.584C273.975 12.4393 274.252 12.367 274.57 12.367C274.845 12.367 275.088 12.4277 275.298 12.549C275.508 12.6703 275.65 12.8313 275.725 13.032L275.669 13.018L275.746 12.444H276.943C276.924 12.6027 276.91 12.7637 276.901 12.927C276.891 13.0903 276.887 13.2513 276.887 13.41V15.713C276.887 16.3103 276.716 16.7677 276.376 17.085C276.035 17.407 275.54 17.568 274.892 17.568ZM274.955 14.985C275.169 14.985 275.34 14.9127 275.466 14.768C275.592 14.6233 275.655 14.4133 275.655 14.138C275.655 13.858 275.592 13.648 275.466 13.508C275.34 13.3633 275.169 13.291 274.955 13.291C274.735 13.291 274.563 13.3633 274.437 13.508C274.311 13.648 274.248 13.858 274.248 14.138C274.248 14.4133 274.311 14.6233 274.437 14.768C274.563 14.9127 274.735 14.985 274.955 14.985Z" fill="#475467"/>
<rect x="192.5" y="0.5" width="39" height="26.4286" rx="3.5" fill="white" stroke="#D0D5DD"/>
<path d="M198.1 16L195.86 11.065H197.246L198.842 14.817H198.457L200.046 11.065H201.383L199.143 16H198.1ZM202.934 16.077C202.538 16.077 202.195 16.0023 201.905 15.853C201.616 15.7037 201.392 15.4913 201.233 15.216C201.075 14.936 200.995 14.6047 200.995 14.222C200.995 13.8347 201.075 13.5033 201.233 13.228C201.392 12.9527 201.616 12.7403 201.905 12.591C202.195 12.4417 202.538 12.367 202.934 12.367C203.326 12.367 203.667 12.4417 203.956 12.591C204.246 12.7403 204.47 12.955 204.628 13.235C204.787 13.5103 204.866 13.8393 204.866 14.222C204.866 14.6 204.787 14.929 204.628 15.209C204.47 15.489 204.246 15.7037 203.956 15.853C203.667 16.0023 203.326 16.077 202.934 16.077ZM202.934 15.153C203.14 15.153 203.303 15.0807 203.424 14.936C203.546 14.7867 203.606 14.5487 203.606 14.222C203.606 13.8953 203.546 13.6597 203.424 13.515C203.303 13.3657 203.14 13.291 202.934 13.291C202.724 13.291 202.559 13.3657 202.437 13.515C202.316 13.6597 202.255 13.8953 202.255 14.222C202.255 14.5487 202.316 14.7867 202.437 14.936C202.559 15.0807 202.724 15.153 202.934 15.153ZM205.477 16V13.417C205.477 13.2537 205.472 13.0903 205.463 12.927C205.453 12.7637 205.439 12.6027 205.421 12.444H206.625L206.758 13.536H206.569C206.615 13.27 206.69 13.0507 206.793 12.878C206.895 12.7053 207.024 12.577 207.178 12.493C207.332 12.409 207.514 12.367 207.724 12.367C207.822 12.367 207.894 12.3717 207.941 12.381C207.992 12.3857 208.046 12.3997 208.102 12.423V13.515C207.985 13.4637 207.892 13.431 207.822 13.417C207.752 13.403 207.661 13.396 207.549 13.396C207.357 13.396 207.201 13.431 207.08 13.501C206.958 13.5663 206.87 13.669 206.814 13.809C206.762 13.949 206.737 14.1287 206.737 14.348V16H205.477ZM208.478 16V10.848H209.724V13.879H209.738L210.928 12.444H212.398L210.788 14.348V13.921L212.461 16H210.956L209.738 14.509H209.724V16H208.478ZM214.014 16.077C213.706 16.077 213.435 16.0047 213.202 15.86C212.968 15.7107 212.784 15.496 212.649 15.216C212.518 14.936 212.453 14.6047 212.453 14.222C212.453 13.8347 212.518 13.5033 212.649 13.228C212.784 12.948 212.968 12.7357 213.202 12.591C213.435 12.4417 213.706 12.367 214.014 12.367C214.289 12.367 214.536 12.4323 214.756 12.563C214.98 12.6937 215.127 12.864 215.197 13.074H215.127L215.204 12.444H216.401C216.387 12.6027 216.373 12.7637 216.359 12.927C216.349 13.0903 216.345 13.2513 216.345 13.41V16H215.113L215.099 15.398H215.183C215.113 15.6033 214.966 15.769 214.742 15.895C214.522 16.0163 214.28 16.077 214.014 16.077ZM214.413 15.153C214.623 15.153 214.793 15.0807 214.924 14.936C215.054 14.7867 215.12 14.5487 215.12 14.222C215.12 13.8953 215.054 13.6597 214.924 13.515C214.793 13.3657 214.623 13.291 214.413 13.291C214.203 13.291 214.032 13.3657 213.902 13.515C213.771 13.6597 213.706 13.8953 213.706 14.222C213.706 14.5487 213.769 14.7867 213.895 14.936C214.025 15.0807 214.198 15.153 214.413 15.153ZM218.483 16.077C218.152 16.077 217.851 16.0443 217.58 15.979C217.314 15.909 217.088 15.8157 216.901 15.699L217.202 14.887C217.384 14.9897 217.587 15.0737 217.811 15.139C218.04 15.2043 218.266 15.237 218.49 15.237C218.668 15.237 218.796 15.2113 218.875 15.16C218.959 15.104 219.001 15.0317 219.001 14.943C219.001 14.873 218.976 14.817 218.924 14.775C218.873 14.733 218.796 14.7027 218.693 14.684L217.937 14.551C217.639 14.495 217.405 14.3853 217.237 14.222C217.074 14.054 216.992 13.837 216.992 13.571C216.992 13.3283 217.058 13.1183 217.188 12.941C217.319 12.759 217.506 12.619 217.748 12.521C217.991 12.4183 218.278 12.367 218.609 12.367C218.88 12.367 219.137 12.3973 219.379 12.458C219.627 12.5187 219.841 12.6143 220.023 12.745L219.701 13.536C219.557 13.438 219.386 13.3587 219.19 13.298C218.999 13.2327 218.819 13.2 218.651 13.2C218.451 13.2 218.308 13.2303 218.224 13.291C218.14 13.347 218.098 13.417 218.098 13.501C218.098 13.5663 218.122 13.6223 218.168 13.669C218.215 13.711 218.29 13.7413 218.392 13.76L219.148 13.893C219.456 13.9443 219.692 14.0517 219.855 14.215C220.023 14.3737 220.107 14.5907 220.107 14.866C220.107 15.1227 220.037 15.342 219.897 15.524C219.762 15.7013 219.573 15.839 219.33 15.937C219.088 16.0303 218.805 16.077 218.483 16.077ZM222.024 16.077C221.693 16.077 221.392 16.0443 221.121 15.979C220.855 15.909 220.629 15.8157 220.442 15.699L220.743 14.887C220.925 14.9897 221.128 15.0737 221.352 15.139C221.581 15.2043 221.807 15.237 222.031 15.237C222.209 15.237 222.337 15.2113 222.416 15.16C222.5 15.104 222.542 15.0317 222.542 14.943C222.542 14.873 222.517 14.817 222.465 14.775C222.414 14.733 222.337 14.7027 222.234 14.684L221.478 14.551C221.18 14.495 220.946 14.3853 220.778 14.222C220.615 14.054 220.533 13.837 220.533 13.571C220.533 13.3283 220.599 13.1183 220.729 12.941C220.86 12.759 221.047 12.619 221.289 12.521C221.532 12.4183 221.819 12.367 222.15 12.367C222.421 12.367 222.678 12.3973 222.92 12.458C223.168 12.5187 223.382 12.6143 223.564 12.745L223.242 13.536C223.098 13.438 222.927 13.3587 222.731 13.298C222.54 13.2327 222.36 13.2 222.192 13.2C221.992 13.2 221.849 13.2303 221.765 13.291C221.681 13.347 221.639 13.417 221.639 13.501C221.639 13.5663 221.663 13.6223 221.709 13.669C221.756 13.711 221.831 13.7413 221.933 13.76L222.689 13.893C222.997 13.9443 223.233 14.0517 223.396 14.215C223.564 14.3737 223.648 14.5907 223.648 14.866C223.648 15.1227 223.578 15.342 223.438 15.524C223.303 15.7013 223.114 15.839 222.871 15.937C222.629 16.0303 222.346 16.077 222.024 16.077ZM226.076 16.077C225.432 16.077 224.931 15.9113 224.571 15.58C224.217 15.2487 224.039 14.7937 224.039 14.215C224.039 13.8557 224.114 13.536 224.263 13.256C224.413 12.976 224.623 12.759 224.893 12.605C225.164 12.4463 225.481 12.367 225.845 12.367C226.205 12.367 226.503 12.4463 226.741 12.605C226.984 12.759 227.166 12.9737 227.287 13.249C227.409 13.5197 227.469 13.8347 227.469 14.194V14.46H225.082V13.872H226.552L226.433 13.97C226.433 13.704 226.382 13.508 226.279 13.382C226.181 13.2513 226.041 13.186 225.859 13.186C225.649 13.186 225.488 13.2653 225.376 13.424C225.269 13.578 225.215 13.8113 225.215 14.124V14.25C225.215 14.5627 225.292 14.7913 225.446 14.936C225.6 15.0807 225.822 15.153 226.111 15.153C226.298 15.153 226.473 15.132 226.636 15.09C226.804 15.048 226.963 14.9803 227.112 14.887L227.434 15.699C227.257 15.8203 227.052 15.9137 226.818 15.979C226.585 16.0443 226.338 16.077 226.076 16.077Z" fill="#475467"/>
<rect x="144.5" y="0.5" width="39" height="26.4286" rx="3.5" fill="white" stroke="#D0D5DD"/>
<path fill-rule="evenodd" clip-rule="evenodd" d="M155.315 17.418H153.537C153.416 17.418 153.312 17.5064 153.293 17.6265L152.574 22.1854C152.56 22.2754 152.63 22.3564 152.721 22.3564H153.57C153.691 22.3564 153.795 22.268 153.814 22.1477L154.008 20.9181C154.026 20.7977 154.13 20.7094 154.251 20.7094H154.814C155.985 20.7094 156.661 20.1427 156.838 19.0197C156.917 18.5283 156.841 18.1423 156.611 17.8719C156.358 17.5751 155.91 17.418 155.315 17.418ZM155.52 19.0831C155.423 19.721 154.936 19.721 154.464 19.721H154.196L154.384 18.5295C154.395 18.4576 154.458 18.4046 154.531 18.4046H154.654C154.975 18.4046 155.277 18.4046 155.434 18.5875C155.527 18.6968 155.556 18.8589 155.52 19.0831ZM160.63 19.0626H159.778C159.706 19.0626 159.643 19.1157 159.632 19.1877L159.594 19.4258L159.535 19.3395C159.35 19.072 158.939 18.9826 158.529 18.9826C157.588 18.9826 156.785 19.6951 156.628 20.6947C156.547 21.1933 156.663 21.67 156.945 22.0025C157.205 22.3082 157.576 22.4356 158.018 22.4356C158.776 22.4356 159.196 21.9481 159.196 21.9481L159.158 22.1848C159.144 22.2752 159.213 22.3563 159.304 22.3563H160.071C160.193 22.3563 160.296 22.2679 160.315 22.1476L160.775 19.2337C160.79 19.144 160.72 19.0626 160.63 19.0626ZM159.443 20.7196C159.361 21.206 158.975 21.5325 158.482 21.5325C158.235 21.5325 158.037 21.4532 157.911 21.303C157.785 21.1538 157.737 20.9413 157.777 20.7048C157.854 20.2225 158.246 19.8855 158.731 19.8855C158.973 19.8855 159.169 19.9657 159.299 20.1173C159.428 20.2704 159.48 20.4841 159.443 20.7196ZM164.308 19.0625H165.164C165.284 19.0625 165.354 19.1969 165.285 19.2951L162.44 23.4025C162.394 23.469 162.318 23.5086 162.237 23.5086H161.382C161.262 23.5086 161.192 23.3731 161.261 23.2746L162.148 22.0239L161.205 19.2585C161.173 19.1623 161.244 19.0625 161.346 19.0625H162.186C162.296 19.0625 162.392 19.1342 162.424 19.2387L162.924 20.909L164.104 19.1709C164.15 19.103 164.227 19.0625 164.308 19.0625Z" fill="#475467"/>
<path fill-rule="evenodd" clip-rule="evenodd" d="M173.584 22.1856L174.314 17.5433C174.325 17.4713 174.387 17.4182 174.46 17.418H175.281C175.372 17.418 175.442 17.4993 175.427 17.5893L174.708 22.148C174.689 22.2683 174.586 22.3567 174.464 22.3567H173.73C173.64 22.3567 173.57 22.2756 173.584 22.1856ZM167.996 17.4182H166.218C166.097 17.4182 165.993 17.5066 165.974 17.6267L165.255 22.1856C165.241 22.2756 165.311 22.3567 165.401 22.3567H166.314C166.399 22.3567 166.471 22.2949 166.484 22.2106L166.688 20.9184C166.707 20.7979 166.811 20.7096 166.932 20.7096H167.495C168.666 20.7096 169.342 20.1429 169.519 19.0199C169.598 18.5286 169.522 18.1425 169.292 17.8721C169.039 17.5753 168.591 17.4182 167.996 17.4182ZM168.201 19.0833C168.104 19.7213 167.617 19.7213 167.145 19.7213H166.877L167.066 18.5298C167.077 18.4579 167.139 18.4048 167.212 18.4048H167.335C167.656 18.4048 167.959 18.4048 168.115 18.5878C168.209 18.697 168.237 18.8592 168.201 19.0833ZM173.31 19.0628H172.46C172.386 19.0628 172.324 19.1159 172.313 19.188L172.276 19.426L172.216 19.3398C172.032 19.0722 171.621 18.9828 171.211 18.9828C170.27 18.9828 169.467 19.6954 169.31 20.695C169.229 21.1935 169.344 21.6702 169.627 22.0028C169.887 22.3084 170.258 22.4358 170.699 22.4358C171.457 22.4358 171.878 21.9484 171.878 21.9484L171.84 22.185C171.825 22.2755 171.895 22.3566 171.986 22.3566H172.753C172.874 22.3566 172.978 22.2681 172.997 22.1478L173.457 19.2339C173.471 19.1443 173.402 19.0628 173.31 19.0628ZM172.124 20.7199C172.042 21.2062 171.655 21.5327 171.163 21.5327C170.916 21.5327 170.718 21.4535 170.591 21.3032C170.466 21.154 170.418 20.9416 170.458 20.7051C170.535 20.2228 170.927 19.8857 171.412 19.8857C171.654 19.8857 171.85 19.9659 171.98 20.1175C172.11 20.2707 172.161 20.4843 172.124 20.7199Z" fill="#475467"/>
<path d="M161.895 15.7872L162.113 14.3989L161.626 14.3876H159.301L160.917 4.14325C160.922 4.11232 160.938 4.08348 160.962 4.06301C160.986 4.04253 161.017 4.03125 161.048 4.03125H164.968C166.27 4.03125 167.168 4.30206 167.637 4.83657C167.857 5.08732 167.997 5.34935 168.064 5.63771C168.135 5.94029 168.137 6.30179 168.067 6.74269L168.062 6.77487V7.05737L168.282 7.18192C168.467 7.28012 168.614 7.39255 168.727 7.52127C168.915 7.73566 169.037 8.00814 169.088 8.33118C169.141 8.66343 169.124 9.05877 169.037 9.50637C168.936 10.0212 168.774 10.4697 168.555 10.8366C168.354 11.1747 168.097 11.4551 167.793 11.6724C167.502 11.8789 167.156 12.0356 166.765 12.136C166.387 12.2345 165.955 12.2843 165.482 12.2843H165.176C164.958 12.2843 164.746 12.3628 164.58 12.5037C164.413 12.6475 164.303 12.8438 164.269 13.0587L164.246 13.1837L163.86 15.6305L163.842 15.7203C163.838 15.7488 163.83 15.763 163.818 15.7727C163.808 15.7813 163.793 15.7872 163.778 15.7872H161.895Z" fill="#475467"/>
<path d="M168.49 6.80762C168.479 6.88242 168.465 6.9589 168.45 7.03746C167.933 9.69165 166.165 10.6086 163.906 10.6086H162.756C162.479 10.6086 162.247 10.8092 162.204 11.0816L161.615 14.8162L161.448 15.8747C161.42 16.0536 161.558 16.2149 161.738 16.2149H163.778C164.02 16.2149 164.225 16.0394 164.263 15.8012L164.283 15.6975L164.667 13.2602L164.692 13.1265C164.729 12.8875 164.935 12.712 165.177 12.712H165.482C167.458 12.712 169.005 11.9096 169.457 9.58759C169.646 8.61761 169.548 7.80769 169.049 7.23807C168.897 7.0663 168.71 6.92379 168.49 6.80762Z" fill="#475467"/>
<path d="M167.949 6.59229C167.87 6.5693 167.789 6.5484 167.705 6.5296C167.621 6.51122 167.535 6.49492 167.446 6.48071C167.136 6.43056 166.797 6.40674 166.433 6.40674H163.36C163.284 6.40674 163.213 6.42387 163.148 6.4548C163.006 6.52291 162.901 6.65707 162.876 6.82131L162.222 10.9612L162.203 11.082C162.246 10.8095 162.479 10.6089 162.755 10.6089H163.905C166.164 10.6089 167.933 9.69156 168.45 7.03779C168.465 6.95922 168.478 6.88275 168.49 6.80794C168.359 6.73856 168.217 6.67922 168.065 6.62865C168.027 6.61611 167.989 6.604 167.949 6.59229Z" fill="#292D36"/>
<path d="M162.876 6.82105C162.901 6.6568 163.007 6.52266 163.148 6.45495C163.213 6.42402 163.285 6.40689 163.36 6.40689H166.433C166.797 6.40689 167.136 6.43071 167.446 6.48086C167.535 6.49507 167.621 6.51137 167.705 6.52975C167.789 6.54857 167.87 6.56947 167.949 6.59244C167.989 6.60415 168.027 6.61626 168.065 6.62839C168.218 6.67895 168.36 6.73872 168.49 6.80767C168.644 5.82682 168.489 5.159 167.959 4.55427C167.374 3.88853 166.319 3.60352 164.969 3.60352H161.049C160.773 3.60352 160.538 3.80411 160.495 4.07701L158.862 14.4267C158.83 14.6315 158.988 14.8162 159.194 14.8162H161.615L162.222 10.9609L162.876 6.82105Z" fill="#98A2B3"/>
<rect x="96.5" y="0.5" width="39" height="26.4286" rx="3.5" fill="white" stroke="#D0D5DD"/>
<path fill-rule="evenodd" clip-rule="evenodd" d="M102.2 17.5762H100.572V10.2852H102.2V17.5762ZM106.263 10.2852H104.671C104.671 11.6269 104.071 12.8584 103.025 13.6641L102.394 14.1498L104.838 17.5764H106.848L104.599 14.4234C105.665 13.332 106.263 11.8636 106.263 10.2852ZM108.859 17.5742H107.322V10.2866H108.859V17.5742ZM113.503 12.533V12.8555C113.089 12.5646 112.588 12.3937 112.048 12.3937C110.619 12.3937 109.461 13.5846 109.461 15.0537C109.461 16.5228 110.619 17.7137 112.048 17.7137C112.588 17.7137 113.089 17.5428 113.503 17.252V17.5741H114.972V12.533H113.503ZM113.499 15.0539C113.499 15.7702 112.903 16.3509 112.169 16.3509C111.434 16.3509 110.838 15.7702 110.838 15.0539C110.838 14.3375 111.434 13.757 112.169 13.757C112.903 13.757 113.499 14.3375 113.499 15.0539ZM128.992 12.8555V12.533H130.46V17.5741H128.992V17.252C128.577 17.5428 128.076 17.7137 127.536 17.7137C126.107 17.7137 124.949 16.5228 124.949 15.0537C124.949 13.5846 126.107 12.3937 127.536 12.3937C128.076 12.3937 128.577 12.5646 128.992 12.8555ZM127.657 16.3509C128.392 16.3509 128.987 15.7702 128.987 15.0539C128.987 14.3375 128.392 13.757 127.657 13.757C126.922 13.757 126.327 14.3375 126.327 15.0539C126.327 15.7702 126.922 16.3509 127.657 16.3509ZM122.34 12.3976C121.754 12.3976 121.199 12.5847 120.828 13.1012V12.5334H119.366V17.5743H120.846V14.9251C120.846 14.1586 121.346 13.7832 121.948 13.7832C122.593 13.7832 122.964 14.1794 122.964 14.9147V17.5743H124.43V14.3685C124.43 13.1954 123.523 12.3976 122.34 12.3976ZM117.243 12.533V13.1896C117.537 12.7958 118.085 12.5333 118.682 12.5333V14.0002L118.673 13.9999C118.67 13.9997 118.667 13.9995 118.664 13.9995C118.083 13.9995 117.246 14.4264 117.246 15.2205V17.5741H115.74V12.533H117.243ZM131.097 16.7332C131.097 16.21 131.51 15.786 132.018 15.786C132.527 15.786 132.94 16.21 132.94 16.7332C132.94 17.2562 132.527 17.6803 132.018 17.6803C131.51 17.6803 131.097 17.2562 131.097 16.7332Z" fill="#475467"/>
<rect x="48.5" y="0.5" width="39" height="26.4286" rx="3.5" fill="white" stroke="#D0D5DD"/>
<path fill-rule="evenodd" clip-rule="evenodd" d="M60.1429 18.5814H57.7196L55.9025 11.649C55.8163 11.3301 55.6331 11.0482 55.3638 10.9153C54.6915 10.5814 53.9507 10.3156 53.1426 10.1816V9.91472H57.0462C57.585 9.91472 57.989 10.3156 58.0564 10.7813L58.9992 15.7819L61.4212 9.91472H63.7771L60.1429 18.5814ZM65.124 18.5814H62.8355L64.72 9.91472H67.0085L65.124 18.5814ZM69.9693 12.3157C70.0366 11.8489 70.4407 11.582 70.9121 11.582C71.6529 11.515 72.4599 11.649 73.1333 11.9817L73.5374 10.1158C72.8639 9.84887 72.1231 9.71484 71.4509 9.71484C69.2297 9.71484 67.6134 10.9153 67.6134 12.5814C67.6134 13.8489 68.7583 14.5144 69.5664 14.9153C70.4407 15.3151 70.7774 15.582 70.7101 15.9818C70.7101 16.5814 70.0366 16.8483 69.3644 16.8483C68.5562 16.8483 67.7481 16.6484 67.0085 16.3145L66.6044 18.1816C67.4126 18.5144 68.2869 18.6484 69.095 18.6484C71.5856 18.7143 73.1333 17.515 73.1333 15.7149C73.1333 13.448 69.9693 13.3151 69.9693 12.3157ZM81.1426 18.5814L79.3255 9.91472H77.3736C76.9696 9.91472 76.5655 10.1816 76.4308 10.5814L73.0659 18.5814H75.4218L75.8921 17.3151H78.7867L79.0561 18.5814H81.1426ZM77.7104 12.2487L78.3826 15.515H76.4982L77.7104 12.2487Z" fill="#475467"/>
<rect x="0.5" y="0.5" width="39" height="26.4286" rx="3.5" fill="white" stroke="#D0D5DD"/>
<path fill-rule="evenodd" clip-rule="evenodd" d="M20.2857 19.608C18.9239 20.7832 17.1575 21.4926 15.2272 21.4926C10.9201 21.4926 7.42859 17.9605 7.42859 13.6035C7.42859 9.24644 10.9201 5.71436 15.2272 5.71436C17.1575 5.71436 18.9239 6.42379 20.2857 7.59897C21.6475 6.42379 23.414 5.71436 25.3443 5.71436C29.6513 5.71436 33.1429 9.24644 33.1429 13.6035C33.1429 17.9605 29.6513 21.4926 25.3443 21.4926C23.414 21.4926 21.6475 20.7832 20.2857 19.608Z" fill="#98A2B3"/>
<path fill-rule="evenodd" clip-rule="evenodd" d="M20.2857 19.608C21.9625 18.161 23.0257 16.0078 23.0257 13.6035C23.0257 11.1991 21.9625 9.04598 20.2857 7.59896C21.6475 6.42379 23.414 5.71436 25.3443 5.71436C29.6513 5.71436 33.1429 9.24644 33.1429 13.6035C33.1429 17.9605 29.6513 21.4926 25.3443 21.4926C23.414 21.4926 21.6475 20.7832 20.2857 19.608Z" fill="#475467"/>
<path fill-rule="evenodd" clip-rule="evenodd" d="M20.2857 19.6081C21.9625 18.1611 23.0257 16.008 23.0257 13.6036C23.0257 11.1993 21.9625 9.04613 20.2857 7.59912C18.6089 9.04613 17.5457 11.1993 17.5457 13.6036C17.5457 16.008 18.6089 18.1611 20.2857 19.6081Z" fill="#292D36"/>
</svg>
