<svg width="36" height="29" viewBox="0 0 36 29" fill="none" xmlns="http://www.w3.org/2000/svg">
<path d="M29.4779 14.5973C29.4779 17.3587 28.3643 19.86 26.5617 21.6767C26.3879 21.8519 26.301 21.9395 26.2496 22.0237C26.2007 22.1041 26.1722 22.1733 26.1503 22.2649C26.1274 22.3608 26.1274 22.47 26.1274 22.6883V26.6589C26.1274 27.128 26.1274 27.3625 26.0361 27.5417C25.9558 27.6993 25.8277 27.8275 25.6701 27.9078C25.4909 27.9991 25.2563 27.9991 24.7872 27.9991H21.6043C21.1352 27.9991 20.9006 27.9991 20.7215 27.9078C20.5639 27.8275 20.4357 27.6993 20.3554 27.5417C20.2641 27.3625 20.2641 27.128 20.2641 26.6589V25.9888C20.2641 25.5197 20.2641 25.2851 20.1728 25.106C20.0925 24.9483 19.9644 24.8202 19.8068 24.7399C19.6276 24.6486 19.393 24.6486 18.9239 24.6486H16.5786C16.1095 24.6486 15.875 24.6486 15.6958 24.7399C15.5382 24.8202 15.41 24.9483 15.3297 25.106C15.2384 25.2851 15.2384 25.5197 15.2384 25.9888V26.6589C15.2384 27.128 15.2384 27.3625 15.1471 27.5417C15.0668 27.6993 14.9387 27.8275 14.7811 27.9078C14.6019 27.9991 14.3674 27.9991 13.8983 27.9991H10.7152C10.2461 27.9991 10.0116 27.9991 9.83238 27.9078C9.67477 27.8275 9.54663 27.6993 9.46633 27.5417C9.37503 27.3625 9.37503 27.128 9.37503 26.6589V25.0244C9.37503 24.6859 9.37503 24.5167 9.32685 24.3808C9.28066 24.2506 9.22248 24.1594 9.12381 24.0627C9.02088 23.9618 8.8465 23.8808 8.49774 23.7189C6.85231 22.955 5.44823 21.7589 4.43124 20.2765C4.25241 20.0159 4.16299 19.8855 4.0675 19.8085C3.9762 19.7349 3.89425 19.6917 3.78189 19.6581C3.66437 19.6229 3.52485 19.6229 3.24582 19.6229H2.33908C1.86998 19.6229 1.63542 19.6229 1.45625 19.5316C1.29864 19.4513 1.17051 19.3232 1.0902 19.1656C0.998905 18.9864 0.998906 18.7519 0.998906 18.2827V12.5631C0.998906 12.1165 0.998902 11.8932 1.08187 11.7209C1.1642 11.55 1.30212 11.4121 1.47305 11.3298C1.64531 11.2468 1.86861 11.2468 2.31521 11.2468C2.63847 11.2468 2.8001 11.2468 2.93029 11.2029C3.07067 11.1556 3.1691 11.0927 3.27095 10.9851C3.36541 10.8853 3.44252 10.7185 3.59673 10.3849C4.09171 9.31397 4.76958 8.34493 5.59027 7.51781C5.76411 7.34261 5.85103 7.25501 5.90235 7.17076C5.9513 7.09038 5.9798 7.02119 6.00166 6.92965C6.02458 6.8337 6.02458 6.72454 6.02458 6.50621V4.64738C6.02458 4.04422 6.02458 3.74264 6.15019 3.53993C6.26022 3.36236 6.43262 3.23231 6.63359 3.1753C6.86301 3.11022 7.15298 3.19306 7.73293 3.35876L11.7075 4.49433C11.7751 4.51363 11.8088 4.52328 11.8432 4.53005C11.8737 4.53607 11.9045 4.54039 11.9354 4.54298C11.9703 4.5459 12.0054 4.5459 12.0757 4.5459H12.7296C12.7537 4.5459 12.7658 4.5459 12.7775 4.54534C12.7883 4.54483 12.7982 4.54405 12.8089 4.54287C12.8206 4.54157 12.8324 4.5397 12.8561 4.53595C15.389 4.13431 21.0844 3.81766 24.1104 5.70164C27.3022 7.38575 29.4779 10.7374 29.4779 14.5973ZM29.4779 14.5973H31.153C33.0034 14.5973 34.5034 13.0972 34.5034 11.2468" stroke="#7C7C7C" stroke-width="1.5" stroke-linecap="round" stroke-linejoin="round"/>
<mask id="path-2-inside-1_1_667" fill="white">
<path d="M6.38574 11.3068C6.38574 10.9533 6.45538 10.6032 6.59068 10.2765C6.72599 9.94987 6.9243 9.65307 7.17431 9.40307C7.42431 9.15306 7.72111 8.95474 8.04776 8.81944C8.37441 8.68414 8.72451 8.6145 9.07807 8.6145C9.43163 8.6145 9.78173 8.68414 10.1084 8.81944C10.435 8.95475 10.7318 9.15306 10.9818 9.40307C11.2318 9.65307 11.4302 9.94987 11.5655 10.2765C11.7008 10.6032 11.7704 10.9533 11.7704 11.3068L10.6489 11.3068C10.6489 11.1005 10.6083 10.8963 10.5294 10.7057C10.4504 10.5151 10.3347 10.3419 10.1888 10.1961C10.043 10.0502 9.8698 9.93448 9.67921 9.85554C9.48863 9.7766 9.28436 9.73597 9.07807 9.73597C8.87178 9.73597 8.66751 9.7766 8.47693 9.85554C8.28634 9.93448 8.11317 10.0502 7.9673 10.1961C7.82143 10.3419 7.70572 10.5151 7.62678 10.7057C7.54784 10.8963 7.50721 11.1005 7.50721 11.3068H6.38574Z"/>
</mask>
<path d="M6.38574 11.3068C6.38574 10.9533 6.45538 10.6032 6.59068 10.2765C6.72599 9.94987 6.9243 9.65307 7.17431 9.40307C7.42431 9.15306 7.72111 8.95474 8.04776 8.81944C8.37441 8.68414 8.72451 8.6145 9.07807 8.6145C9.43163 8.6145 9.78173 8.68414 10.1084 8.81944C10.435 8.95475 10.7318 9.15306 10.9818 9.40307C11.2318 9.65307 11.4302 9.94987 11.5655 10.2765C11.7008 10.6032 11.7704 10.9533 11.7704 11.3068L10.6489 11.3068C10.6489 11.1005 10.6083 10.8963 10.5294 10.7057C10.4504 10.5151 10.3347 10.3419 10.1888 10.1961C10.043 10.0502 9.8698 9.93448 9.67921 9.85554C9.48863 9.7766 9.28436 9.73597 9.07807 9.73597C8.87178 9.73597 8.66751 9.7766 8.47693 9.85554C8.28634 9.93448 8.11317 10.0502 7.9673 10.1961C7.82143 10.3419 7.70572 10.5151 7.62678 10.7057C7.54784 10.8963 7.50721 11.1005 7.50721 11.3068H6.38574Z" stroke="#7C7C7C" stroke-width="3" mask="url(#path-2-inside-1_1_667)"/>
<circle cx="22.0011" cy="9.15294" r="8.40391" fill="white" stroke="#7C7C7C" stroke-width="1.5"/>
<path d="M22.3347 12.2428C21.8547 12.2428 21.428 12.1362 21.0547 11.9228C20.688 11.7095 20.3847 11.3995 20.1447 10.9928C19.9047 10.5862 19.7447 10.0928 19.6647 9.51283L19.7947 9.65283H18.6247V9.11283H19.7547L19.6347 9.24283C19.6147 9.0495 19.6047 8.8395 19.6047 8.61283C19.6113 8.38617 19.6213 8.18617 19.6347 8.01283L19.7647 8.13283H18.6247V7.59283H19.8447L19.6647 7.74283C19.7447 7.15617 19.9047 6.66283 20.1447 6.26283C20.3847 5.85616 20.688 5.54616 21.0547 5.33283C21.428 5.1195 21.8547 5.01283 22.3347 5.01283C22.7347 5.01283 23.1047 5.08616 23.4447 5.23283C23.7847 5.3795 24.0747 5.60283 24.3147 5.90283L24.0047 6.51283C23.7913 6.23283 23.548 6.03617 23.2747 5.92283C23.008 5.80283 22.7147 5.74283 22.3947 5.74283C21.9013 5.74283 21.4913 5.90617 21.1647 6.23283C20.838 6.5595 20.618 7.05283 20.5047 7.71283L20.3247 7.59283H22.2347V8.13283H20.2947L20.4747 8.01283C20.4547 8.1795 20.4447 8.3795 20.4447 8.61283C20.4447 8.8395 20.4547 9.04617 20.4747 9.23283L20.2947 9.11283H22.2347V9.65283H20.3947L20.5047 9.53283C20.618 10.1995 20.838 10.6962 21.1647 11.0228C21.4913 11.3495 21.9013 11.5128 22.3947 11.5128C22.7147 11.5128 23.008 11.4528 23.2747 11.3328C23.548 11.2128 23.7913 11.0162 24.0047 10.7428L24.3147 11.3428C24.0747 11.6495 23.7847 11.8762 23.4447 12.0228C23.1047 12.1695 22.7347 12.2428 22.3347 12.2428Z" fill="#7C7C7C"/>
</svg>
