<svg width="30" height="29" viewBox="0 0 30 29" fill="none" xmlns="http://www.w3.org/2000/svg">
<path d="M5.95968 25.6269H9.19688C9.61895 25.6269 10.0384 25.6771 10.4476 25.7776L13.8681 26.6088C14.6103 26.7896 15.3834 26.8071 16.1333 26.6615L19.9152 25.9257C20.9143 25.7311 21.8333 25.2527 22.5535 24.5521L25.2292 21.9493C25.9934 21.2072 25.9934 20.0031 25.2292 19.2598C24.5413 18.5905 23.4519 18.5152 22.6736 19.0827L19.5551 21.3579C19.1085 21.6843 18.5651 21.8601 18.0062 21.8601H14.9949L16.9117 21.86C17.992 21.86 18.8671 21.0087 18.8671 19.9578V19.5774C18.8671 18.7047 18.2566 17.9438 17.3867 17.7329L14.4283 17.0134C13.9468 16.8967 13.4538 16.8376 12.9581 16.8376C11.7616 16.8376 9.59572 17.8283 9.59572 17.8283L5.95968 19.3488M0.999023 18.8219L0.999023 26.0149C0.999023 26.7094 0.999023 27.0567 1.13419 27.322C1.25309 27.5553 1.44281 27.7451 1.67617 27.864C1.94145 27.9991 2.28873 27.9991 2.98329 27.9991H3.97542C4.66998 27.9991 5.01726 27.9991 5.28254 27.864C5.51589 27.7451 5.70562 27.5553 5.82451 27.322C5.95968 27.0567 5.95968 26.7094 5.95968 26.0149V18.8219C5.95968 18.1274 5.95968 17.7801 5.82451 17.5148C5.70562 17.2814 5.5159 17.0917 5.28254 16.9728C5.01726 16.8376 4.66998 16.8376 3.97542 16.8376H2.98329C2.28873 16.8376 1.94145 16.8376 1.67617 16.9728C1.44281 17.0917 1.25309 17.2814 1.13419 17.5148C0.999023 17.7801 0.999023 18.1274 0.999023 18.8219Z" stroke="#7C7C7C" stroke-width="1.5" stroke-linecap="round" stroke-linejoin="round"/>
<path d="M27.7562 5.2907C24.8244 4.56514 19.489 5.00622 19.9339 11.7944C22.4913 12.8069 27.3025 12.7674 27.7562 5.2907Z" stroke="#7C7C7C" stroke-width="1.5"/>
<path d="M11.5107 2.49892C14.4425 1.77336 20.3761 2.11238 19.9312 8.9006C17.3738 9.91302 11.9644 9.9756 11.5107 2.49892Z" stroke="#7C7C7C" stroke-width="1.5"/>
<path d="M19.9312 21.0538L19.9312 11.7939" stroke="#7C7C7C" stroke-width="1.5"/>
</svg>
